<?xml version="1.0" encoding="UTF-8"?>
<svg xmlns="http://www.w3.org/2000/svg" width="66.1mm" height="22.9mm" version="1.1" viewBox="0 0 66.1 22.9">
  <g transform="translate(0 -.000451)" fill="#02213f" stroke-width=".0188">
    <path d="m29.5 6.87h3.54v-0.743l-0.0849-1.91-0.255-1.26-0.516-0.855-0.869-0.695-1.16-0.461-1.37-0.154-1.26 0.141-1.06 0.422-0.827 0.672-0.562 0.889-0.323 1.29-0.108 1.87 0.0758 1.36 0.227 1.1 0.343 0.859 0.422 0.65 1.88 1.75 1.78 1.71 0.265 0.798 0.0883 1.37-0.0464 0.662-0.139 0.476-0.234 0.287-0.332 0.0958-0.323-0.0754-0.207-0.226-0.112-0.49-0.0373-0.868v-2.29h-3.54v1.23l0.0837 1.87 0.251 1.39 0.522 1.05 0.895 0.844 1.19 0.557 1.42 0.186 1.31-0.161 1.14-0.483 0.879-0.721 0.538-0.875 0.275-1.22 0.0917-1.74-0.165-2.38-0.207-0.906-0.289-0.716-0.448-0.664-0.684-0.751-2.07-1.76-0.713-0.624-0.364-0.525-0.149-0.592-0.0496-0.825 0.0441-0.639 0.132-0.453 0.218-0.27 0.302-0.09 0.272 0.0667 0.181 0.2 0.136 1.24z"/>
    <path d="m34.2 10.5h3.43v-1.61l0.0905-1.6 0.161-0.231 0.301-0.0769 0.28 0.0914 0.187 0.274 0.14 1.57-0.127 1.28-0.545 0.461-1.38 0.757-1.37 0.783-0.74 0.679-0.319 0.902-0.106 1.45v1.27l0.0501 1.06 0.15 0.858 0.25 0.653 0.351 0.448 0.841 0.518 0.92 0.173 0.682-0.103 0.581-0.31 0.481-0.516 0.384-0.722v1.37h3.56v-7.73l-0.0475-3.17-0.143-1.87-0.378-1.13-0.754-0.937-0.528-0.368-0.642-0.263-1.63-0.21-1.4 0.186-1.11 0.557-0.807 0.799-0.483 0.913-0.241 1.17-0.0803 1.58zm3.9 2.87 0.694-0.757v3.17l-0.104 1.43-0.164 0.205-0.284 0.0682-0.302-0.087-0.182-0.261-0.122-1.54 0.14-1.6z"/>
    <path d="m48.4 3.56v-2.38h-1.34l-1.06 0.0522-0.74 0.157-0.515 0.257-0.386 0.353-0.261 0.428-0.141 0.483-0.0815 2.03h-0.751v2.44h0.751v12.6h3.66v-12.6h0.869v-2.44h-1.54v-0.487l0.0509-0.503 0.153-0.257z"/>
    <path d="m52.7 12.5h4.73v-2.04l-0.101-1.99-0.302-1.49-0.552-1.11-0.851-0.87-1.13-0.561-1.4-0.187-1.19 0.155-1.04 0.466-0.833 0.757-0.561 1.03-0.319 1.38-0.106 1.81v4.49l0.0475 1.51 0.143 1.1 0.266 0.862 0.418 0.786 0.592 0.669 0.789 0.509 0.955 0.322 1.09 0.107 1.09-0.109 0.893-0.326 0.723-0.544 0.585-0.762 0.422-0.844 0.234-0.792 0.14-2.19v-1.14h-3.47v2.03l-0.14 1.55-0.209 0.3-0.347 0.1-0.281-0.0754-0.172-0.226-0.118-1.35zm1.07-3.63v1.13h-1.07v-1.13l0.0905-1.6 0.163-0.222 0.308-0.074 0.256 0.087 0.152 0.261z"/>
    <path d="m64.4 11.9 1.46-7.36h-3.25l-0.803 5.36-0.794-5.36h-3.06l1.58 7.36-1.58 8.04h3.06l0.794-5.25 0.803 5.25h3.56z"/>
  </g>
  <g stroke-width=".0188">
    <path d="m9.96 19.3 2.68-0.339 0.0496-0.197-0.0056-0.383-0.105-0.369-0.197-0.329-0.275-0.267-0.335-0.187-0.372-0.0938-0.383 0.0056-0.369 0.105-0.329 0.197-0.267 0.275-0.187 0.335-0.0939 0.372 0.00559 0.383 0.105 0.369z" fill="#93b0ca"/>
    <path d="m0.195 14.6 4.35 0.958-1.32-10.5 14.8-1.88-14.6-3.23z" fill="#02213f"/>
    <path d="m14.6 22.9 3.22-14.6-14.6-3.22-3.22 14.6zm-1.91-4.14-0.0938 0.372-0.187 0.335-0.267 0.275-0.329 0.197-0.369 0.105-0.383 0.0056-0.372-0.0938-0.335-0.187-0.275-0.267-0.197-0.329-0.105-0.369-0.00559-0.383 0.0939-0.372 0.187-0.335 0.267-0.275 0.329-0.197 0.369-0.105 0.383-0.0056 0.372 0.0938 0.335 0.187 0.275 0.267 0.197 0.329 0.105 0.369z" fill="#4e91bb"/>
    <path d="m3.22 5.1 14.6 3.22-2.27 10.3 4.38-0.554-1.88-14.8z" fill="#93b0ca"/>
  </g>
</svg>
