<?xml version="1.0" encoding="UTF-8" standalone="no"?>
<svg
  width="66.1mm"
  height="22.9mm"
  version="1.1"
  viewBox="0 0 66.1 22.9"
  id="svg9"
  sodipodi:docname="safex-logo-white.svg"
  xml:space="preserve"
  inkscape:version="1.3.1 (9b9bdc1480, 2023-11-25, custom)"
  xmlns:inkscape="http://www.inkscape.org/namespaces/inkscape"
  xmlns:sodipodi="http://sodipodi.sourceforge.net/DTD/sodipodi-0.dtd"
  xmlns="http://www.w3.org/2000/svg"
  xmlns:svg="http://www.w3.org/2000/svg"
>
  <defs id="defs9" />
  <sodipodi:namedview
    id="namedview9"
    pagecolor="#ffffff"
    bordercolor="#000000"
    borderopacity="0.25"
    inkscape:showpageshadow="2"
    inkscape:pageopacity="0.0"
    inkscape:pagecheckerboard="0"
    inkscape:deskcolor="#d1d1d1"
    inkscape:document-units="mm"
    inkscape:zoom="1.9280754"
    inkscape:cx="175.04502"
    inkscape:cy="17.634165"
    inkscape:window-width="1854"
    inkscape:window-height="1131"
    inkscape:window-x="66"
    inkscape:window-y="32"
    inkscape:window-maximized="1"
    inkscape:current-layer="svg9"
  />
  <g id="g10" transform="translate(-111.71397,-2.4109145)">
    <g
      transform="translate(111.58147,2.7537978)"
      fill="#02213f"
      stroke-width="0.0188"
      id="g5"
      style="fill: #f9f9f9"
    >
      <path
        d="m 29.5,6.87 h 3.54 V 6.127 l -0.0849,-1.91 -0.255,-1.26 -0.516,-0.855 -0.869,-0.695 -1.16,-0.461 -1.37,-0.154 -1.26,0.141 -1.06,0.422 -0.827,0.672 -0.562,0.889 -0.323,1.29 -0.108,1.87 0.0758,1.36 0.227,1.1 0.343,0.859 0.422,0.65 1.88,1.75 1.78,1.71 0.265,0.798 0.0883,1.37 -0.0464,0.662 -0.139,0.476 -0.234,0.287 -0.332,0.0958 -0.323,-0.0754 -0.207,-0.226 -0.112,-0.49 -0.0373,-0.868 v -2.29 h -3.54 v 1.23 l 0.0837,1.87 0.251,1.39 0.522,1.05 0.895,0.844 1.19,0.557 1.42,0.186 1.31,-0.161 1.14,-0.483 0.879,-0.721 0.538,-0.875 0.275,-1.22 0.0917,-1.74 -0.165,-2.38 -0.207,-0.906 -0.289,-0.716 -0.448,-0.664 -0.684,-0.751 -2.07,-1.76 -0.713,-0.624 -0.364,-0.525 -0.149,-0.592 -0.0496,-0.825 0.0441,-0.639 0.132,-0.453 0.218,-0.27 0.302,-0.09 0.272,0.0667 0.181,0.2 0.136,1.24 z"
        id="path1"
        style="fill: #f9f9f9"
      />
      <path
        d="m 34.2,10.5 h 3.43 V 8.89 l 0.0905,-1.6 0.161,-0.231 0.301,-0.0769 0.28,0.0914 0.187,0.274 0.14,1.57 -0.127,1.28 -0.545,0.461 -1.38,0.757 -1.37,0.783 -0.74,0.679 -0.319,0.902 -0.106,1.45 v 1.27 l 0.0501,1.06 0.15,0.858 0.25,0.653 0.351,0.448 0.841,0.518 0.92,0.173 0.682,-0.103 0.581,-0.31 0.481,-0.516 0.384,-0.722 v 1.37 h 3.56 v -7.73 l -0.0475,-3.17 -0.143,-1.87 -0.378,-1.13 -0.754,-0.937 -0.528,-0.368 -0.642,-0.263 -1.63,-0.21 -1.4,0.186 -1.11,0.557 -0.807,0.799 -0.483,0.913 -0.241,1.17 -0.0803,1.58 z m 3.9,2.87 0.694,-0.757 v 3.17 l -0.104,1.43 -0.164,0.205 -0.284,0.0682 -0.302,-0.087 -0.182,-0.261 -0.122,-1.54 0.14,-1.6 z"
        id="path2"
        style="fill: #f9f9f9"
      />
      <path
        d="M 48.4,3.56 V 1.18 H 47.06 L 46,1.2322 l -0.74,0.157 -0.515,0.257 -0.386,0.353 -0.261,0.428 -0.141,0.483 -0.0815,2.03 h -0.751 v 2.44 h 0.751 v 12.6 h 3.66 v -12.6 h 0.869 v -2.44 h -1.54 v -0.487 l 0.0509,-0.503 0.153,-0.257 z"
        id="path3"
        style="fill: #f9f9f9"
      />
      <path
        d="m 52.7,12.5 h 4.73 V 10.46 L 57.329,8.47 57.027,6.98 56.475,5.87 55.624,5 54.494,4.439 53.094,4.252 51.904,4.407 50.864,4.873 50.031,5.63 49.47,6.66 49.151,8.04 49.045,9.85 v 4.49 l 0.0475,1.51 0.143,1.1 0.266,0.862 0.418,0.786 0.592,0.669 0.789,0.509 0.955,0.322 1.09,0.107 1.09,-0.109 0.893,-0.326 0.723,-0.544 0.585,-0.762 0.422,-0.844 0.234,-0.792 0.14,-2.19 v -1.14 h -3.47 v 2.03 l -0.14,1.55 -0.209,0.3 -0.347,0.1 -0.281,-0.0754 -0.172,-0.226 -0.118,-1.35 z M 53.77,8.87 V 10 H 52.7 V 8.87 l 0.0905,-1.6 0.163,-0.222 0.308,-0.074 0.256,0.087 0.152,0.261 z"
        id="path4"
        style="fill: #f9f9f9"
      />
      <path
        d="M 64.4,11.9 65.86,4.54 H 62.61 L 61.807,9.9 61.013,4.54 h -3.06 l 1.58,7.36 -1.58,8.04 h 3.06 l 0.794,-5.25 0.803,5.25 h 3.56 z"
        id="path5"
        style="fill: #f9f9f9"
      />
    </g>
    <g
      stroke-width="0.0188"
      id="g9"
      style="fill: #f9f9f9"
      transform="translate(111.58147,2.7542488)"
    >
      <path
        d="m 9.96,19.3 2.68,-0.339 0.0496,-0.197 -0.0056,-0.383 -0.105,-0.369 -0.197,-0.329 -0.275,-0.267 -0.335,-0.187 -0.372,-0.0938 -0.383,0.0056 -0.369,0.105 -0.329,0.197 -0.267,0.275 -0.187,0.335 -0.0939,0.372 0.00559,0.383 0.105,0.369 z"
        fill="#93b0ca"
        id="path6"
        style="fill: #f9f9f9"
      />
      <path
        d="M 0.195,14.6 0.78138693,14.538369 3.0152809,4.6647163 17.714918,2.7602097 3.425,-0.052 Z"
        fill="#02213f"
        id="path7"
        sodipodi:nodetypes="cccccc"
        style="fill: #f9f9f9"
      />
      <path
        d="M 13.696675,22.265331 16.824406,8.8774278 3.45138,5.7220567 0.36889345,19.639296 Z M 12.69,18.76 l -0.0938,0.372 -0.187,0.335 -0.267,0.275 -0.329,0.197 -0.369,0.105 -0.383,0.0056 -0.372,-0.0938 -0.335,-0.187 -0.275,-0.267 -0.197,-0.329 -0.105,-0.369 -0.00559,-0.383 0.0939,-0.372 0.187,-0.335 0.267,-0.275 0.329,-0.197 0.369,-0.105 0.383,-0.0056 0.372,0.0938 0.335,0.187 0.275,0.267 0.197,0.329 0.105,0.369 z"
        fill="#4e91bb"
        id="path8"
        sodipodi:nodetypes="cccccccccccccccccccccccccccccc"
        style="fill: #f9f9f9"
      />
      <path
        d="M 3.660326,5.2378879 17.82,8.32 15.55,18.62 19.93,18.066 17.973251,3.4614381 Z"
        fill="#93b0ca"
        id="path9"
        style="fill: #f9f9f9"
        sodipodi:nodetypes="cccccc"
      />
    </g>
    <path
      id="path10"
      style="
        fill: none;
        fill-opacity: 1;
        stroke: #36404b;
        stroke-width: 0.565;
        stroke-linecap: round;
        stroke-dasharray: none;
        stroke-opacity: 1;
      "
      d="m 121.79078,22.029136 c -0.50176,-0.771318 0.0948,-1.700981 0.69487,-1.843999 0.8751,-0.208556 1.63308,0.293941 1.48011,1.533694"
      sodipodi:nodetypes="csc"
    />
  </g>
</svg>
