<?xml version="1.0" encoding="UTF-8"?>
<svg xmlns="http://www.w3.org/2000/svg" width="170" height="64" viewBox="0 0 170 64" fill="none">
  <path d="M21 20.902C21 20.6094 21.0366 20.3777 21.1097 20.207C21.2073 20.0363 21.4389 19.89 21.8047 19.7681C22.4143 19.573 22.902 19.4267 23.2677 19.3292C23.6335 19.2317 23.9017 19.1585 24.0724 19.1097C24.2675 19.061 24.4016 19.0366 24.4748 19.0366C24.5479 19.0122 24.6089 19 24.6577 19C24.8527 19 24.9747 19.0488 25.0234 19.1463C25.0966 19.2438 25.1332 19.4267 25.1332 19.695V28.6562C25.377 28.4611 25.6818 28.2905 26.0476 28.1441C26.3646 28.0222 26.7425 27.9125 27.1814 27.815C27.6204 27.693 28.1568 27.6321 28.7908 27.6321C29.9125 27.6321 30.9366 27.7906 31.8632 28.1076C32.7899 28.4002 33.5823 28.9001 34.2407 29.6072C34.8991 30.29 35.4112 31.1922 35.7769 32.3139C36.1427 33.4356 36.3256 34.8133 36.3256 36.447C36.3256 38.1783 36.1427 39.6048 35.7769 40.7265C35.4356 41.8482 34.9235 42.7504 34.2407 43.4332C33.558 44.1159 32.7289 44.5914 31.7535 44.8596C30.7781 45.1279 29.6686 45.262 28.425 45.262C27.8642 45.262 27.2424 45.2254 26.5596 45.1523C25.8769 45.0791 25.1941 44.9816 24.5114 44.8596C23.853 44.7133 23.2068 44.567 22.5728 44.4207C21.9632 44.25 21.4389 44.0793 21 43.9087V20.902ZM32.0461 36.447C32.0461 35.3497 31.973 34.4475 31.8267 33.7404C31.7047 33.0088 31.4853 32.448 31.1683 32.0578C30.8513 31.6433 30.449 31.3629 29.9613 31.2166C29.4736 31.0459 28.8883 30.9605 28.2056 30.9605C27.7423 30.9605 27.3277 31.0093 26.962 31.1068C26.5962 31.18 26.2792 31.2775 26.011 31.3995C25.694 31.5214 25.4014 31.6555 25.1332 31.8018V41.5312C25.4258 41.6043 25.7306 41.6775 26.0476 41.7506C26.3158 41.7994 26.6328 41.8482 26.9986 41.8969C27.3643 41.9457 27.7301 41.9701 28.0959 41.9701C28.6811 41.9701 29.2175 41.9213 29.7052 41.8238C30.1929 41.7262 30.6074 41.4946 30.9488 41.1288C31.2902 40.7631 31.5584 40.2144 31.7535 39.4829C31.9486 38.7514 32.0461 37.7394 32.0461 36.447Z" fill="#FBC900"></path>
  <path d="M44.1681 38.2027C44.1681 38.666 44.2047 39.1293 44.2779 39.5926C44.351 40.0315 44.4973 40.4339 44.7168 40.7996C44.9362 41.141 45.2532 41.4214 45.6678 41.6409C46.0823 41.8604 46.6309 41.9701 47.3137 41.9701C48.3135 41.9701 49.0816 41.7994 49.618 41.458C50.1545 41.0923 50.5812 40.6533 50.8982 40.1413V29.022C50.8982 28.3148 51.2274 27.9613 51.8858 27.9613H54.0438C54.7266 27.9613 55.0679 28.3148 55.0679 29.022V40.4339C55.0679 40.9947 55.1777 41.3971 55.3971 41.6409C55.6166 41.8847 55.9336 42.0067 56.3481 42.0067C56.47 42.0067 56.592 42.0067 56.7139 42.0067C56.8602 41.9823 56.9577 41.9701 57.0065 41.9701C57.4454 41.9701 57.7015 42.1896 57.7746 42.6285L57.9941 44.2378C57.9941 44.4573 57.8234 44.689 57.482 44.9328C57.1406 45.1523 56.4457 45.262 55.3971 45.262C54.5924 45.262 53.8853 45.0791 53.2757 44.7133C52.6905 44.3232 52.3003 43.738 52.1052 42.9577C51.9589 43.1771 51.7151 43.421 51.3737 43.6892C51.0567 43.933 50.6666 44.1769 50.2033 44.4207C49.74 44.6646 49.2035 44.8596 48.5939 45.0059C48.0087 45.1766 47.3503 45.262 46.6188 45.262C44.2535 45.262 42.5588 44.7255 41.5346 43.6526C40.5105 42.5553 39.9984 41.0557 39.9984 39.1537V29.022C39.9984 28.3148 40.3276 27.9613 40.986 27.9613H43.144C43.8267 27.9613 44.1681 28.3148 44.1681 29.022V38.2027Z" fill="#FBC900"></path>
  <path d="M74.7824 43.9087C74.2704 44.1037 73.6851 44.2866 73.0268 44.4573C72.3928 44.6036 71.7344 44.7377 71.0516 44.8596C70.3689 44.9816 69.6983 45.0791 69.0399 45.1523C68.4059 45.2254 67.8329 45.262 67.3208 45.262C66.0772 45.262 64.9677 45.1279 63.9923 44.8596C63.017 44.5914 62.1879 44.1159 61.5051 43.4332C60.8468 42.7504 60.3347 41.8482 59.9689 40.7265C59.6275 39.6048 59.4568 38.1783 59.4568 36.447C59.4568 34.8133 59.6397 33.4356 60.0055 32.3139C60.3713 31.1922 60.8833 30.29 61.5417 29.6072C62.2001 28.9001 62.9926 28.4002 63.9192 28.1076C64.8458 27.7906 65.8699 27.6321 66.9916 27.6321C67.6012 27.6321 68.1255 27.693 68.5644 27.815C69.0033 27.9125 69.3813 28.0222 69.6983 28.1441C70.0397 28.2905 70.3445 28.4611 70.6127 28.6562V20.3533C70.6127 19.6706 70.9541 19.3292 71.6368 19.3292H73.7583C74.4411 19.3292 74.7824 19.6706 74.7824 20.3533V43.9087ZM70.6127 31.8018C70.3445 31.6555 70.0519 31.5214 69.7349 31.3995C69.4666 31.2775 69.1375 31.18 68.7473 31.1068C68.3815 31.0093 67.9792 30.9605 67.5403 30.9605C66.8331 30.9605 66.2357 31.0459 65.748 31.2166C65.2847 31.3629 64.8946 31.6433 64.5776 32.0578C64.285 32.448 64.0655 33.0088 63.9192 33.7404C63.7973 34.4475 63.7363 35.3497 63.7363 36.447C63.7363 37.7394 63.8217 38.7514 63.9923 39.4829C64.1874 40.2144 64.4556 40.7631 64.797 41.1288C65.1628 41.4946 65.5895 41.7262 66.0772 41.8238C66.5649 41.9213 67.1014 41.9701 67.6866 41.9701C68.028 41.9701 68.3815 41.9457 68.7473 41.8969C69.1131 41.8482 69.4301 41.7994 69.6983 41.7506C70.0153 41.6775 70.3201 41.6043 70.6127 41.5312V31.8018Z" fill="#FBC900"></path>
  <path d="M79.2233 29.022C79.2233 28.3148 79.5525 27.9613 80.2109 27.9613H82.3689C83.0273 27.9613 83.3565 28.3148 83.3565 29.022V43.9087C83.3565 44.5914 83.0273 44.9328 82.3689 44.9328H80.2109C79.5525 44.9328 79.2233 44.5914 79.2233 43.9087V29.022ZM83.7954 23.1697C83.7954 23.8525 83.5394 24.4377 83.0273 24.9254C82.5396 25.3887 81.9666 25.6204 81.3082 25.6204C80.5767 25.6204 79.9793 25.3887 79.516 24.9254C79.0527 24.4377 78.821 23.8525 78.821 23.1697C78.821 22.4138 79.0527 21.8164 79.516 21.3775C79.9793 20.9386 80.5767 20.7191 81.3082 20.7191C81.9422 20.7191 82.5152 20.9508 83.0273 21.4141C83.5394 21.8774 83.7954 22.4626 83.7954 23.1697Z" fill="#FBC900"></path>
  <path d="M98.182 33.7404C98.1333 32.9113 97.8894 32.2407 97.4505 31.7287C97.0359 31.2166 96.2313 30.9605 95.0364 30.9605C94.4756 30.9605 93.9269 31.0459 93.3905 31.2166C92.854 31.3873 92.3785 31.5945 91.964 31.8384V43.9087C91.964 44.5914 91.6348 44.9328 90.9764 44.9328H88.8184C88.4526 44.9328 88.1966 44.8475 88.0503 44.6768C87.904 44.5061 87.8308 44.25 87.8308 43.9087V30.0096C88.1966 29.7169 88.6355 29.4365 89.1476 29.1683C89.6841 28.8757 90.2693 28.6196 90.9033 28.4002C91.5373 28.1563 92.22 27.9735 92.9516 27.8515C93.7075 27.7052 94.4878 27.6321 95.2925 27.6321C96.5361 27.6321 97.5968 27.754 98.4746 27.9978C99.3768 28.2173 100.108 28.5343 100.669 28.9488C101.352 28.6074 102.084 28.3026 102.864 28.0344C103.669 27.7662 104.571 27.6321 105.57 27.6321C107.107 27.6321 108.338 27.7906 109.265 28.1076C110.191 28.4002 110.898 28.8025 111.386 29.3146C111.898 29.8267 112.24 30.4119 112.41 31.0703C112.581 31.7287 112.666 32.3992 112.666 33.082V43.9087C112.666 44.5914 112.337 44.9328 111.679 44.9328H109.521C108.838 44.9328 108.497 44.5914 108.497 43.9087V34.033C108.497 33.5697 108.448 33.1551 108.35 32.7894C108.253 32.3992 108.082 32.07 107.838 31.8018C107.619 31.5336 107.302 31.3263 106.887 31.18C106.473 31.0337 105.948 30.9605 105.314 30.9605C104.705 30.9605 104.144 31.0459 103.632 31.2166C103.12 31.3629 102.644 31.558 102.205 31.8018C102.205 31.8993 102.218 32.0335 102.242 32.2041C102.266 32.3505 102.279 32.5333 102.279 32.7528C102.303 32.9723 102.315 33.2405 102.315 33.5575V43.9087C102.315 44.5914 101.986 44.9328 101.328 44.9328H99.1696C98.5112 44.9328 98.182 44.5914 98.182 43.9087V33.7404Z" fill="#FBC900"></path>
  <path d="M127.258 34.7279C127.258 33.4843 126.978 32.5455 126.417 31.9115C125.881 31.2775 125.1 30.9605 124.076 30.9605C123.003 30.9605 122.15 31.2653 121.516 31.875C120.906 32.4846 120.601 33.5819 120.601 35.1668H127.258V34.7279ZM125.064 45.262C123.406 45.262 122.016 45.0791 120.894 44.7133C119.772 44.3476 118.87 43.7989 118.187 43.0674C117.529 42.3359 117.054 41.4214 116.761 40.3241C116.468 39.2269 116.322 37.9345 116.322 36.447C116.322 33.4234 117.005 31.2044 118.37 29.7901C119.76 28.3514 121.65 27.6321 124.04 27.6321C126.6 27.6321 128.453 28.3392 129.599 29.7535C130.77 31.1678 131.355 33.1795 131.355 35.7887C131.355 36.6421 131.245 37.2517 131.026 37.6175C130.831 37.9589 130.453 38.1296 129.892 38.1296H120.601C120.601 38.7392 120.662 39.2878 120.784 39.7755C120.931 40.2388 121.174 40.6411 121.516 40.9825C121.857 41.2995 122.321 41.5434 122.906 41.7141C123.491 41.8847 124.247 41.9701 125.174 41.9701C125.881 41.9701 126.478 41.9335 126.966 41.8604C127.478 41.7872 127.905 41.7019 128.246 41.6043C128.587 41.5068 128.868 41.4214 129.087 41.3483C129.307 41.2751 129.49 41.2386 129.636 41.2386C129.758 41.2386 129.88 41.3361 130.002 41.5312C130.148 41.7263 130.27 41.9579 130.367 42.2261C130.489 42.47 130.587 42.7138 130.66 42.9577C130.733 43.1771 130.77 43.3356 130.77 43.4332C130.77 43.7258 130.575 43.9818 130.185 44.2013C129.819 44.4207 129.343 44.6158 128.758 44.7865C128.197 44.9328 127.588 45.0425 126.929 45.1157C126.271 45.2132 125.649 45.262 125.064 45.262Z" fill="#FBC900"></path>
  <path d="M133.704 29.022C133.582 28.7781 133.521 28.6074 133.521 28.5099C133.521 28.3148 133.557 28.1807 133.63 28.1076C133.704 28.01 133.862 27.9613 134.106 27.9613H136.886C137.154 27.9613 137.349 27.9978 137.471 28.071C137.593 28.1441 137.751 28.3392 137.946 28.6562L140.47 32.8625L142.994 28.6562C143.189 28.3148 143.348 28.1198 143.47 28.071C143.616 27.9978 143.86 27.9613 144.201 27.9613H146.835C147.225 27.9613 147.42 28.1441 147.42 28.5099C147.42 28.6318 147.347 28.8025 147.2 29.022L142.665 35.935L147.968 44.0184C148.017 44.0915 148.054 44.1647 148.078 44.2378C148.103 44.311 148.115 44.372 148.115 44.4207C148.115 44.7621 147.92 44.9328 147.53 44.9328H144.677C144.433 44.9328 144.25 44.8962 144.128 44.8231C144.03 44.7255 143.884 44.5305 143.689 44.2378L140.47 39.3366L137.252 44.2378C137.056 44.5548 136.898 44.7499 136.776 44.8231C136.654 44.8962 136.459 44.9328 136.191 44.9328H133.411C133.021 44.9328 132.826 44.7621 132.826 44.4207C132.826 44.2744 132.887 44.1037 133.009 43.9087L138.203 35.935L133.704 29.022Z" fill="#FBC900"></path>
</svg>
