<svg width="97" height="121" viewBox="0 0 97 121" fill="none" xmlns="http://www.w3.org/2000/svg">
<rect width="97" height="121" fill="#05347A"/>
<path d="M68.7518 30.4695H54.3235L47.6309 42.4993L54.3235 54.4412H68.7518L75.3576 42.4993L68.7518 30.4695Z" fill="#A7A9AC"/>
<path d="M75.2707 13.9615H31.5512L15.5583 42.5871L31.5512 70.9492H75.2707V66.3832H39.5476L26.7707 42.5871L40.156 18.5276L75.2707 18.6154V13.9615Z" fill="#A7A9AC"/>
<path d="M75.3576 22.1277H42.8504L31.6381 42.4993L42.8504 62.6952H75.3576V58.0414H51.3683L42.5028 42.4993L51.8029 26.7816L75.3576 26.8694V22.1277Z" fill="#A7A9AC"/>
<path d="M10.1694 92.0232C10.1694 98.6089 15.5583 104.053 22.251 104.053C24.6847 104.053 27.1184 103.263 29.2044 101.77L29.5521 101.507V96.238L28.2483 97.5552C26.5969 99.3113 24.337 100.277 22.251 100.277C17.9051 100.277 14.2546 96.5015 14.2546 92.0232C14.2546 87.545 17.9051 83.7693 22.251 83.7693C24.5108 83.7693 26.6838 84.7351 28.3352 86.4035L29.639 87.8084V82.4521L29.2913 82.1887C27.2053 80.6081 24.9454 79.9057 22.3379 79.9057C15.5583 79.8179 10.1694 85.262 10.1694 92.0232Z" fill="white"/>
<path d="M35.9839 87.4572V84.0327C39.1999 84.0327 40.6775 84.5595 40.6775 87.1938C40.6775 87.2816 40.6775 87.3694 40.6775 87.4572C40.5906 89.4768 39.1999 90.3549 35.9839 90.3549V87.4572ZM39.7214 93.6038C42.5897 92.9013 44.4149 90.6183 44.5888 87.4572C44.5888 87.2816 44.5888 87.1938 44.5888 87.0182C44.5888 82.5399 41.6336 80.1691 35.897 80.1691H32.768H31.9857V87.4572V103.614H35.897V94.8331C37.1139 96.5893 41.8943 103.614 41.8943 103.614H46.7617C46.7617 103.614 40.8513 95.1843 39.7214 93.6038Z" fill="white"/>
<path d="M50.8468 80.1691H47.6309V103.614H51.6291V80.1691H50.8468Z" fill="white"/>
<path d="M54.5843 86.1401C54.5843 89.7402 57.1049 91.2329 59.7124 92.4623L61.0162 93.0769L61.1031 93.1647C63.276 94.1306 64.5798 94.8331 64.5798 96.7649C64.5798 98.6967 62.9284 100.277 60.9293 100.277C59.104 100.277 57.6264 98.8723 57.3656 96.8527L57.2787 95.9746L53.3674 97.1161L53.5413 97.8186C54.3235 101.594 57.2787 104.053 61.0162 104.053C65.2751 104.053 68.578 100.716 68.578 96.5015C68.578 92.4623 65.6228 90.8817 62.9284 89.6524L61.4508 89.0377C59.7993 88.2475 58.4956 87.6328 58.4956 86.3157C58.4956 84.8229 59.7124 83.6814 61.3638 83.6814C62.7545 83.6814 63.6237 84.2083 64.406 85.701L64.8405 86.4035L68.0565 84.2961L67.7088 83.6814C66.4051 81.2228 64.1452 79.9057 61.4508 79.9057C57.4526 79.8179 54.5843 82.5399 54.5843 86.1401Z" fill="white"/>
<path d="M82.3111 80.1691H68.665V84.0327H73.8801V103.614H77.7914V84.0327H83.0934V80.1691H82.3111Z" fill="white"/>
<path d="M82.8325 99.2235C83.2671 99.2235 83.6148 99.2235 83.6148 99.6626C83.6148 100.102 83.0064 100.014 82.5718 100.014H82.0503V99.2235H82.8325ZM83.1802 100.541C83.6148 100.541 84.0494 100.277 84.0494 99.6626C84.0494 98.9601 83.5279 98.7845 82.9194 98.7845H81.5288V102.121H82.0503V100.541H82.6587L83.5279 102.121H84.0494L83.1802 100.541ZM82.7456 103.351C84.397 103.351 85.7008 102.033 85.7008 100.365C85.7008 98.6967 84.397 97.3795 82.7456 97.3795C81.0942 97.3795 79.7904 98.6967 79.7904 100.365C79.7904 102.033 81.0942 103.351 82.7456 103.351ZM82.7456 97.9064C84.0494 97.9064 85.1793 98.9601 85.1793 100.365C85.1793 101.77 84.0494 102.824 82.7456 102.824C81.4418 102.824 80.3119 101.77 80.3119 100.365C80.225 98.9601 81.3549 97.9064 82.7456 97.9064Z" fill="white"/>
</svg>
