<svg xmlns="http://www.w3.org/2000/svg" xmlns:xlink="http://www.w3.org/1999/xlink" viewBox="0 0 433.85 111.4"><defs><style>.a{fill:#004c98;}.b,.e,.f,.g,.h,.i,.j,.k,.l,.m{fill-rule:evenodd;}.b{fill:url(#a);}.c{fill:url(#b);}.d{fill:url(#c);}.e{fill:#970d1a;}.f{fill:#f04e53;}.g{fill:#f15b55;}.h{fill:url(#d);}.i{fill:#970d18;}.j{fill:#013b82;}.k{fill:url(#e);}.l{fill:url(#f);}.m{fill:url(#g);}</style><linearGradient id="a" x1="166.31" y1="439.56" x2="192.29" y2="427.45" gradientTransform="translate(16.98 -22.52) rotate(1.84)" gradientUnits="userSpaceOnUse"><stop offset="0.1" stop-color="#004c98"/><stop offset="0.36" stop-color="#2363aa"/><stop offset="0.84" stop-color="#618bc8"/></linearGradient><linearGradient id="b" x1="141.21" y1="429.9" x2="141.21" y2="365.52" gradientUnits="userSpaceOnUse"><stop offset="0" stop-color="#a8141f"/><stop offset="0.49" stop-color="#d91a2a"/><stop offset="1" stop-color="#ed1b2f"/></linearGradient><linearGradient id="c" x1="124.21" y1="470.77" x2="89.64" y2="375.79" gradientUnits="userSpaceOnUse"><stop offset="0" stop-color="#ae1426"/><stop offset="0.43" stop-color="#d4192c"/><stop offset="0.56" stop-color="#e01a2d"/><stop offset="0.76" stop-color="#ea1b2f"/><stop offset="1" stop-color="#ed1b2f"/></linearGradient><linearGradient id="d" x1="88.12" y1="417.44" x2="115.29" y2="392.98" gradientUnits="userSpaceOnUse"><stop offset="0.13" stop-color="#e51a2f"/><stop offset="0.27" stop-color="#ea4353"/><stop offset="0.5" stop-color="#f2838a"/><stop offset="0.7" stop-color="#f7b1b2"/><stop offset="0.86" stop-color="#fbcdcb"/><stop offset="0.95" stop-color="#fcd8d4"/></linearGradient><linearGradient id="e" x1="124.44" y1="397.75" x2="146.02" y2="360.37" gradientUnits="userSpaceOnUse"><stop offset="0.03" stop-color="#e23738"/><stop offset="1" stop-color="#fcd3cd"/></linearGradient><linearGradient id="f" x1="167.34" y1="409.96" x2="189.47" y2="399.64" gradientUnits="userSpaceOnUse"><stop offset="0" stop-color="#5e8bc8"/><stop offset="0.24" stop-color="#7098cf"/><stop offset="0.7" stop-color="#9eb9e0"/><stop offset="0.9" stop-color="#b3c8e8"/></linearGradient><linearGradient id="g" x1="367.82" y1="467.1" x2="367.82" y2="375.05" gradientUnits="userSpaceOnUse"><stop offset="0" stop-color="#a81324"/><stop offset="0.18" stop-color="#ad1424"/><stop offset="0.38" stop-color="#ba1625"/><stop offset="0.44" stop-color="#c01725"/><stop offset="0.49" stop-color="#c81827"/><stop offset="0.66" stop-color="#dc1a2b"/><stop offset="0.83" stop-color="#e91b2e"/><stop offset="1" stop-color="#ed1b2f"/></linearGradient></defs><title>logo</title><path class="a" d="M149.74,423.21a24.29,24.29,0,0,1,6-26.17c13.84-13.64,38.88-5.37,40.65,15.8a58.53,58.53,0,0,1-7.59,34.46c-13.36,23.4-41.87,35.15-67.26,27.08,1.84.1,22.5,1.09,30.74-16.62,5.69-12.26,2.76-20.68-2.56-34.55" transform="translate(-79.98 -365.52)"/><path class="b" d="M160.68,397.53c1.29-3.27,5.81-5.83,11.7-5.67,11.39.3,22.27,8.86,23,23a84.12,84.12,0,0,1-.67,11.87c-1.54,8.49-4.69,17.48-6.09,17.69-.86.13,2.23-4.52.65-12.86-.75-4-2.63-13.91-21.19-20.8-5.87-2.18-9.05-10.25-7.38-13.22" transform="translate(-79.98 -365.52)"/><path class="c" d="M138.6,386.69c-7.06,17.61,8.94,30.35,6.14,43.21-5.72-16.53-33.47-13.5-35.52-31-.75-6.36,2.44-12.27,5.79-16.74C128.76,363.82,157.42,361,173.3,372c-16.32-2.83-30.5,4.27-34.7,14.74" transform="translate(-79.98 -365.52)"/><path class="d" d="M127.32,424.24a24.28,24.28,0,0,1,15.8,21.7c1.21,19.4-21.45,32.88-38.59,20.33C68,439.55,75,389,107.18,369.4c-1.27,1.32-15.58,16.27-7.61,34.1,5.51,12.35,13.79,15.66,27.75,20.74" transform="translate(-79.98 -365.52)"/><path class="e" d="M110,396.56c-.06,13.35,15.56,16.24,26.44,22.64a19.41,19.41,0,0,1,8,8.16c-4.84-16-31-13.63-34.45-30.8" transform="translate(-79.98 -365.52)"/><path class="f" d="M135.42,398.65c-3.26-15,2.39-27.65,15-30.1.79-.15,1.48-.57.84-.89l-.42-.17a21.59,21.59,0,0,1,7.59.21h0a23.25,23.25,0,0,1,6.83,2.36c-22.38,1-30.74,11.52-28.81,31.09Z" transform="translate(-79.98 -365.52)"/><path class="g" d="M100.45,375.92c-6,10.36-5,19.25-2.44,26.65,2.86,8.2,9.88,14.81,21.12,20.05-21.1-8.68-35.47-25.87-18.68-46.7" transform="translate(-79.98 -365.52)"/><path class="h" d="M83.62,406.11c1.79-13.78,10.45-24.77,16.56-29.92-.39.49-1.07,1.4-1.46,2-5.72,8.1-6.75,15.61-4.57,22.22a12.17,12.17,0,0,0,.61,1.63v0a28.79,28.79,0,0,0,6.42,9.2c4.06,4,8.55,8.07,14.2,11,4.47,2.28-20.41,1.49-30.65-8.56a17.43,17.43,0,0,1-1.12-7.58" transform="translate(-79.98 -365.52)"/><path class="i" d="M82,428.33c3.26,13.62,10.28,26.82,21.26,35,9.68,7.18,20,9.1,30.27,1.23,3.84-2.93,6.3-7.56,7.75-13.38-3.61,9.16-10.42,13.53-15.41,14.81-23.78,6.1-41-24.39-43.87-37.63" transform="translate(-79.98 -365.52)"/><path class="j" d="M128.25,475.07c9.1-1.23,16.11-4.69,22.49-11.81l-1.65,2.49c-2.92,3.24-2.4,3-5.08,4.74-2.49,1.62-1.16,2.11.32,2,17.47-1.2,43.11-17.84,49-38.62-6.69,27.84-36.93,42-54.59,42.28a42.39,42.39,0,0,1-10.5-1.09" transform="translate(-79.98 -365.52)"/><path class="k" d="M116.14,383.16c5.83-7.12,11.93-11.51,18.54-13.83s15.62-3.92,24.08-1.6c-12.8-2.64-25,6.87-30.29,19.75-6,10.35-21,6.29-12.33-4.32" transform="translate(-79.98 -365.52)"/><path class="l" d="M160.7,395.73c14.26-8.54,31.06.51,33.86,17.16a8.65,8.65,0,0,1,.15,1.64c0,.74-.5-1.18-.6-1.58-4.4-17-21.92-21.52-33.41-17.22" transform="translate(-79.98 -365.52)"/><path class="m" d="M301,375.05c-15.89.08-33.86,14.45-33.86,45.66,0,29.14,16.36,46.31,33.86,46.39,17.66,0,33.94-17.17,33.94-46.39,0-31.29-18.05-45.66-33.94-45.66m0,69.58c-7.86.08-9.23-13.4-9.23-23.27,0-7.71,1-24.48,9.23-24.48v-.08c8.27,0,9.23,16.85,9.23,24.56C310.24,431.23,309,444.79,301,444.63Zm37.64-46.38h13.4v66.69H375.8V398.25h13.33V376.49H338.65Zm-92.93-21.76H221.8v88.45h42.54v-21H245.72Zm250,32.18c-5.38-4.41-4.49-7.77-3.37-9.63s3.13-2.72,5.7-2.72c7.7-.16,13.89,7.22,13.89,7.22v-24c-5.71-2.73-11.4-4.5-16.94-4.5-14.69,0-27.37,10.59-27.37,28.73,0,20.31,22.39,25.84,22.39,34.35,0,4.17-2.49,7.06-7,7-6.26-.24-14.68-7.86-14.68-7.86v25.68a43.22,43.22,0,0,0,17.49,3.93c16.13,0,28-14.05,28-30.18C513.84,419.59,502.36,414.06,495.7,408.67Zm-68.62-33.62c-15.89,0-33.94,14.37-33.94,45.66,0,29.22,16.37,46.39,33.94,46.39S461,449.93,461,420.71C461,389.42,443,375.05,427.08,375.05Zm0,69.58c-7.86.16-9.31-13.4-9.31-23.27,0-7.71,1.05-24.48,9.31-24.56s9.32,16.85,9.32,24.56C436.4,431.23,435,444.79,427.08,444.63Z" transform="translate(-79.98 -365.52)"/></svg>