<?xml version="1.0" encoding="utf-8"?>
<!-- Generator: Adobe Illustrator 25.0.0, SVG Export Plug-In . SVG Version: 6.00 Build 0)  -->
<svg version="1.1" id="Warstwa_1" xmlns="http://www.w3.org/2000/svg" xmlns:xlink="http://www.w3.org/1999/xlink" x="0px" y="0px"
	 viewBox="0 0 230 37" style="enable-background:new 0 0 230 37;" xml:space="preserve">
<style type="text/css">
	.st0{fill-rule:evenodd;clip-rule:evenodd;fill:#FFFFFF;}
	.st1{fill-rule:evenodd;clip-rule:evenodd;fill:#E3001C;}
</style>
<g>
	<polygon class="st0" points="41.3,25.6 41.3,0 30,0 20.7,16 11.5,0 0,0 0,25.6 7.6,25.6 7.6,7.4 18.1,25.6 23.2,25.6 33.8,7.4 
		33.8,25.6 	"/>
	<path class="st0" d="M62.5,17.8c0,2.4-1.3,3.2-4.2,3.2h-3.1c-3,0-4.3-0.8-4.3-3.2v-2.3c0-2.5,1.1-3.3,4.3-3.3h3.1
		c3,0,4.2,0.8,4.2,3.2V17.8z M69,19.1v-5c0-4.8-2.6-6.8-9-6.8h-6.5c-6.7,0-9,1.9-9,7v4.9c0,4.9,2.8,6.7,9,6.7H60
		C66.3,25.8,69,24.2,69,19.1z"/>
	<path class="st0" d="M96.1,19.8c0-3.9-2.1-5.7-6.7-5.7l-8-0.1c-2.1,0-3.1-0.2-3.1-1.2c0-0.9,0.8-1.2,2.4-1.2h4.5
		c1.8,0,2.9,0.4,3.2,1.1H95c0-3.7-2.3-5.3-7-5.3h-7.4c-6.1,0-8.8,1.5-8.8,5.8c0,4.4,2.8,5.4,8.6,5.5l6.4,0.1c1.8,0,2.7,0.5,2.7,1.4
		c0,1.1-0.8,1.4-2.6,1.4h-4.8c-2.4,0-3.6-0.5-3.6-1.6v-0.1h-6.9c0.1,5,2.9,6,9.6,6H88C93.7,25.8,96.1,24.5,96.1,19.8L96.1,19.8z"/>
	<path class="st0" d="M118.2,18.9c0-0.5,0-1-0.1-1.6h-5.8c0,0.4,0.1,0.7,0.1,1.1c0,1.9-0.7,2.6-2.8,2.6c-1.9,0-2.5-0.7-2.5-2.6v-6.2
		h10.2V7.5h-10.2V3.2h-6.5v4.3h-3.7v4.7h3.7v7.4c0,4.7,2.3,6.3,8.4,6.3C115.5,25.8,118.2,23.9,118.2,18.9L118.2,18.9z"/>
	<path class="st0" d="M138.2,17.8c0,2.4-1.3,3.2-4.2,3.2h-3.1c-3,0-4.3-0.8-4.3-3.2v-2.3c0-2.5,1.1-3.3,4.3-3.3h3.1
		c3,0,4.2,0.8,4.2,3.2V17.8z M144.7,19.1v-5c0-4.8-2.6-6.8-9-6.8h-6.5c-6.7,0-9,1.9-9,7v4.9c0,4.9,2.8,6.7,9,6.7h6.5
		C142,25.8,144.7,24.2,144.7,19.1z"/>
	<path class="st0" d="M171.8,19.8c0-3.9-2.1-5.7-6.7-5.7l-8-0.1c-2.1,0-3.1-0.2-3.1-1.2c0-0.9,0.8-1.2,2.4-1.2h4.5
		c1.8,0,2.9,0.4,3.2,1.1h6.5c0-3.7-2.3-5.3-7-5.3h-7.4c-6.1,0-8.8,1.5-8.8,5.8c0,4.4,2.8,5.4,8.6,5.5l6.4,0.1c1.8,0,2.7,0.5,2.7,1.4
		c0,1.1-0.8,1.4-2.6,1.4h-4.8c-2.4,0-3.6-0.5-3.6-1.6v-0.1h-6.9c0.1,5,2.9,6,9.6,6h6.6C169.3,25.8,171.8,24.5,171.8,19.8L171.8,19.8
		z"/>
	<path class="st0" d="M193.9,18.9c0-0.5,0-1-0.1-1.6H188c0,0.4,0.1,0.7,0.1,1.1c0,1.9-0.7,2.6-2.8,2.6c-1.9,0-2.5-0.7-2.5-2.6v-6.2
		H193V7.5h-10.2V3.2h-6.5v4.3h-3.7v4.7h3.7v7.4c0,4.7,2.3,6.3,8.4,6.3C191.1,25.8,193.9,23.9,193.9,18.9L193.9,18.9z"/>
	<path class="st0" d="M212.5,19.5c0,1.4-1,1.9-3.2,1.9h-4c-2.3,0-3.2-0.3-3.2-1.7c0-1.4,1-1.9,3.2-1.9h4
		C211.5,17.8,212.5,18.1,212.5,19.5z M219.1,25.6V13.2c0-4.1-2.4-6-7.3-6h-6.4c-6.3,0-9.2,1.4-9.2,5.4v0.2h6.5c0-1,0.6-1.4,1.9-1.4
		h5.3c1.7,0,2.5,0.7,2.5,2v1.9c-1.6-1.1-4.2-1.5-8-1.5c-6.6,0-9.2,1.2-9.2,5.9s2.3,6.1,8.7,6.1c4.3,0,7.1-0.7,8.4-2.4v2.2
		C212.3,25.6,219.1,25.6,219.1,25.6z"/>
	<rect x="222.9" class="st0" width="6.5" height="25.6"/>
	<polygon class="st1" points="155.1,35.9 151.8,31.5 154.6,29.2 153.3,29.2 149.7,32.1 149.7,29.2 148.7,29.2 148.7,35.9 
		149.7,35.9 149.7,33.3 151.1,32.2 153.9,35.9 	"/>
	<rect x="164.2" y="29.1" class="st1" width="1.1" height="6.7"/>
	<polygon class="st1" points="182.1,35.9 182.1,34.9 176.6,34.9 176.6,32.8 180,32.8 180,31.8 176.6,31.8 176.6,30.1 181.8,30.1 
		181.8,29.1 175.5,29.1 175.5,35.9 	"/>
	<polygon class="st1" points="197.5,35.9 197.5,34.9 192.6,34.9 192.6,29.1 191.5,29.1 191.5,35.9 	"/>
	<path class="st1" d="M213.7,34.2l-0.8-0.6c-0.7,1-1.6,1.4-2.8,1.4c-1.7,0-3-1.1-3-2.6s1.2-2.6,3-2.6c1.1,0,2.1,0.4,2.6,1.2l0.8-0.6
		c-0.7-1-2-1.6-3.4-1.6c-2.4,0-4.1,1.5-4.1,3.6c0,2,1.7,3.5,4.1,3.5C211.7,36.1,213,35.4,213.7,34.2z"/>
	<polygon class="st1" points="230,35.9 230,34.9 224.5,34.9 224.5,32.8 227.9,32.8 227.9,31.8 224.5,31.8 224.5,30.1 229.7,30.1 
		229.7,29.1 223.4,29.1 223.4,35.9 	"/>
	<path class="st0" d="M5.4,35.2v-3.1H2.9v0.5h2l0,0c0,1.4-0.8,2.3-2.1,2.3s-2.1-1-2.1-2.7s0.8-2.7,2.2-2.7c1,0,1.8,0.5,1.9,1.4h0.6
		C5.2,29.7,4.3,29,2.8,29C1.1,29,0,30.2,0,32.2s1,3.2,2.7,3.2c1,0,1.7-0.5,2.1-1.2l0.2,1H5.4z"/>
	<path class="st0" d="M9.3,31.3v-0.5H9.2c-0.6,0-1.1,0.3-1.4,0.9v-0.8H7.4v4.4h0.5v-2.4C7.9,31.8,8.4,31.3,9.3,31.3L9.3,31.3z"/>
	<path class="st0" d="M14.3,35.2v-4.4h-0.5v2.6c0,0.9-0.5,1.5-1.4,1.5c-0.8,0-1.1-0.4-1.1-1.2v-2.8h-0.5v2.9c0,1,0.5,1.6,1.5,1.6
		c0.7,0,1.1-0.3,1.5-0.8v0.7h0.5V35.2z"/>
	<path class="st0" d="M19.7,33c0,1.2-0.6,1.9-1.5,1.9s-1.5-0.7-1.5-1.9s0.5-1.9,1.5-1.9C19.2,31.2,19.7,31.8,19.7,33 M20.2,33
		c0-1.5-0.8-2.3-1.9-2.3c-0.7,0-1.2,0.3-1.5,0.9v-0.8h-0.5V37h0.5v-2.5c0.3,0.6,0.8,0.9,1.5,0.9C19.5,35.3,20.2,34.5,20.2,33z"/>
	<path class="st0" d="M24.8,33.5c0,0.8-0.6,1.4-1.5,1.4c-0.6,0-1-0.3-1-0.8c0-0.4,0.3-0.8,1-0.9c0.6,0,1.2-0.1,1.5-0.2V33.5z
		 M25.8,35.2v-0.4c-0.1,0-0.2,0-0.2,0c-0.3,0-0.3-0.1-0.3-0.4V32c0-0.9-0.6-1.3-1.6-1.3c-1.1,0-1.7,0.6-1.7,1.4h0.5
		c0-0.6,0.5-1,1.2-1c0.8,0,1.1,0.3,1.1,1c0,0.4-0.2,0.4-0.8,0.6c-0.6,0-1.1,0.1-1.6,0.3s-0.7,0.6-0.7,1.1c0,0.8,0.6,1.3,1.5,1.3
		c0.6,0,1.2-0.2,1.6-0.7v0.1c0,0.4,0.2,0.6,0.6,0.6C25.5,35.3,25.7,35.3,25.8,35.2z"/>
	<polygon class="st0" points="35.9,35.2 35.9,29.2 35.1,29.2 33.2,34.5 31.2,29.2 30.4,29.2 30.4,35.2 30.9,35.2 30.9,29.9 
		32.9,35.2 33.4,35.2 35.4,29.9 35.4,35.2 	"/>
	<path class="st0" d="M41.1,33c0,1.2-0.6,1.9-1.5,1.9s-1.5-0.7-1.5-1.9s0.6-1.9,1.5-1.9C40.6,31.2,41.1,31.8,41.1,33 M41.6,33
		c0-1.5-0.7-2.3-2-2.3s-2,0.8-2,2.3s0.7,2.3,2,2.3C40.9,35.3,41.6,34.5,41.6,33z"/>
	<path class="st0" d="M46.6,34.1c0-0.7-0.4-1-1.3-1.2c-0.9-0.2-1.4-0.3-1.4-0.9c0-0.4,0.4-0.8,1-0.8c0.7,0,1.1,0.4,1.1,0.9h0.5
		c-0.1-0.9-0.7-1.4-1.7-1.4c-0.9,0-1.5,0.5-1.5,1.3c0,0.8,0.5,1,1.6,1.3c0.8,0.2,1.2,0.3,1.2,0.8s-0.4,0.8-1.2,0.8
		c-0.7,0-1.1-0.4-1.2-1h-0.5c0,0.9,0.7,1.5,1.7,1.5C45.9,35.3,46.6,34.8,46.6,34.1"/>
	<path class="st0" d="M49.7,35.2v-0.4c-0.2,0-0.4,0.1-0.5,0.1c-0.3,0-0.3-0.2-0.3-0.5v-3.2h0.8v-0.4h-0.8v-1.3h-0.5v1.3h-0.6v0.4
		h0.6v3.2c0,0.6,0.1,0.9,0.7,0.9C49.2,35.3,49.4,35.3,49.7,35.2"/>
	<path class="st0" d="M54.5,33c0,1.2-0.6,1.9-1.5,1.9s-1.5-0.7-1.5-1.9s0.6-1.9,1.5-1.9C54,31.2,54.5,31.8,54.5,33 M55,33
		c0-1.5-0.7-2.3-2-2.3s-2,0.8-2,2.3s0.7,2.3,2,2.3S55,34.5,55,33z"/>
	<path class="st0" d="M60,34.1c0-0.7-0.4-1-1.3-1.2c-0.9-0.2-1.4-0.3-1.4-0.9c0-0.4,0.4-0.8,1-0.8c0.7,0,1.1,0.4,1.1,0.9h0.5
		c-0.1-0.9-0.7-1.4-1.7-1.4c-0.9,0-1.5,0.5-1.5,1.3c0,0.8,0.5,1,1.6,1.3c0.8,0.2,1.2,0.3,1.2,0.8s-0.4,0.8-1.2,0.8
		c-0.7,0-1.1-0.4-1.2-1h-0.5c0,0.9,0.7,1.5,1.7,1.5C59.3,35.3,60,34.8,60,34.1"/>
	<path class="st0" d="M63.1,35.2v-0.4c-0.2,0-0.4,0.1-0.5,0.1c-0.3,0-0.3-0.2-0.3-0.5v-3.2h0.8v-0.4h-0.8v-1.3h-0.5v1.3h-0.6v0.4
		h0.6v3.2c0,0.6,0.1,0.9,0.7,0.9C62.7,35.3,62.9,35.3,63.1,35.2"/>
	<path class="st0" d="M67.6,33.5c0,0.8-0.6,1.4-1.5,1.4c-0.6,0-1-0.3-1-0.8c0-0.4,0.3-0.8,1-0.9c0.6,0,1.2-0.1,1.5-0.2V33.5z
		 M68.6,35.2v-0.4c-0.1,0-0.2,0-0.2,0c-0.3,0-0.3-0.1-0.3-0.4V32c0-0.9-0.6-1.3-1.6-1.3c-1.1,0-1.7,0.6-1.7,1.4h0.5
		c0-0.6,0.5-1,1.2-1c0.8,0,1.1,0.3,1.1,1c0,0.4-0.2,0.4-0.8,0.6c-0.6,0-1.1,0.1-1.6,0.3s-0.7,0.6-0.7,1.1c0,0.8,0.6,1.3,1.5,1.3
		c0.6,0,1.2-0.2,1.6-0.7v0.1c0,0.4,0.2,0.6,0.6,0.6C68.3,35.3,68.4,35.3,68.6,35.2z"/>
	<rect x="70.1" y="29.2" class="st0" width="0.5" height="6.1"/>
	<polygon class="st0" points="82.2,29.2 81.7,29.2 80.3,34.4 79,29.2 78.3,29.2 77,34.4 75.6,29.2 75.1,29.2 76.7,35.2 77.3,35.2 
		78.7,29.8 80,35.2 80.7,35.2 	"/>
	<path class="st0" d="M86.4,33.5c0,0.8-0.6,1.4-1.5,1.4c-0.6,0-1-0.3-1-0.8c0-0.4,0.3-0.8,1-0.9c0.6,0,1.2-0.1,1.5-0.2V33.5z
		 M87.4,35.2v-0.4c-0.1,0-0.2,0-0.2,0c-0.3,0-0.3-0.1-0.3-0.4V32c0-0.9-0.6-1.3-1.6-1.3c-1.1,0-1.7,0.6-1.7,1.4H84
		c0-0.6,0.5-1,1.2-1c0.8,0,1.1,0.3,1.1,1c0,0.4-0.2,0.4-0.8,0.6c-0.6,0-1.1,0.1-1.6,0.3s-0.7,0.6-0.7,1.1c0,0.8,0.6,1.3,1.5,1.3
		c0.6,0,1.2-0.2,1.6-0.7v0.1c0,0.4,0.2,0.6,0.6,0.6C87.1,35.3,87.2,35.3,87.4,35.2z"/>
	<path class="st0" d="M90.8,31.3v-0.5h-0.1c-0.6,0-1.1,0.3-1.4,0.9v-0.8h-0.5v4.4h0.5v-2.4C89.4,31.8,89.9,31.3,90.8,31.3L90.8,31.3
		z"/>
	<path class="st0" d="M95.5,34.1c0-0.7-0.4-1-1.3-1.2s-1.4-0.3-1.4-0.9c0-0.4,0.4-0.8,1-0.8c0.7,0,1.1,0.4,1.1,0.9h0.5
		c-0.1-0.9-0.7-1.4-1.7-1.4c-0.9,0-1.5,0.5-1.5,1.3c0,0.8,0.5,1,1.6,1.3c0.8,0.2,1.2,0.3,1.2,0.8s-0.4,0.8-1.2,0.8
		c-0.7,0-1.1-0.4-1.2-1h-0.5c0,0.9,0.7,1.5,1.7,1.5C94.9,35.3,95.5,34.8,95.5,34.1"/>
	<polygon class="st0" points="100.5,35.2 100.5,34.8 97.6,34.8 100.4,31.3 100.4,30.8 97.1,30.8 97.1,31.3 99.8,31.3 96.9,34.8 
		96.9,35.2 	"/>
	<path class="st0" d="M104.9,33.5c0,0.8-0.6,1.4-1.5,1.4c-0.6,0-1-0.3-1-0.8c0-0.4,0.3-0.8,1-0.9c0.6,0,1.2-0.1,1.5-0.2V33.5z
		 M105.9,35.2v-0.4c-0.1,0-0.2,0-0.2,0c-0.3,0-0.3-0.1-0.3-0.4V32c0-0.9-0.6-1.3-1.6-1.3c-1.1,0-1.7,0.6-1.7,1.4h0.5
		c0-0.6,0.5-1,1.2-1c0.8,0,1.1,0.3,1.1,1c0,0.4-0.2,0.4-0.8,0.6c-0.6,0-1.1,0.1-1.6,0.3s-0.7,0.6-0.7,1.1c0,0.8,0.6,1.3,1.5,1.3
		c0.6,0,1.2-0.2,1.6-0.7v0.1c0,0.4,0.2,0.6,0.6,0.6C105.6,35.3,105.8,35.3,105.9,35.2z"/>
	<polygon class="st0" points="112.7,30.8 112.2,30.8 111.1,34.5 110.1,30.8 109.5,30.8 108.5,34.5 107.4,30.8 106.9,30.8 
		108.3,35.2 108.8,35.2 109.8,31.6 110.8,35.2 111.3,35.2 	"/>
	<path class="st0" d="M117,33.5c0,0.8-0.6,1.4-1.5,1.4c-0.6,0-1-0.3-1-0.8c0-0.4,0.3-0.8,1-0.9c0.6,0,1.2-0.1,1.5-0.2V33.5z
		 M118,35.2v-0.4c-0.1,0-0.2,0-0.2,0c-0.3,0-0.3-0.1-0.3-0.4V32c0-0.9-0.6-1.3-1.6-1.3c-1.1,0-1.7,0.6-1.7,1.4h0.5
		c0-0.6,0.5-1,1.2-1c0.8,0,1.1,0.3,1.1,1c0,0.4-0.2,0.4-0.8,0.6c-0.6,0-1.1,0.1-1.6,0.3s-0.7,0.6-0.7,1.1c0,0.8,0.6,1.3,1.5,1.3
		c0.6,0,1.2-0.2,1.6-0.7v0.1c0,0.4,0.2,0.6,0.6,0.6C117.7,35.3,117.8,35.3,118,35.2z"/>
</g>
</svg>
