<?xml version="1.0" encoding="utf-8"?>
<!-- Generator: Adobe Illustrator 26.3.1, SVG Export Plug-In . SVG Version: 6.00 Build 0)  -->
<svg version="1.1" id="Warstwa_1" xmlns="http://www.w3.org/2000/svg" xmlns:xlink="http://www.w3.org/1999/xlink" x="0px" y="0px"
	 viewBox="0 0 530 100" style="enable-background:new 0 0 530 100;" xml:space="preserve">
<g>
	<g>
		<polygon style="fill-rule:evenodd;clip-rule:evenodd;fill:#FFFFFF;" points="66.52,61.43 66.52,20.24 48.22,20.24 33.26,45.96 
			18.58,20.24 0,20.24 0,61.43 12.24,61.43 12.24,32.08 29.12,61.43 37.34,61.43 54.34,32.08 54.34,61.43 66.52,61.43 		"/>
		<path style="fill-rule:evenodd;clip-rule:evenodd;fill:#FFFFFF;" d="M111.06,50.95v-8.1c0-7.76-4.19-10.93-14.5-10.93l-10.54,0
			c-10.77,0-14.51,3.12-14.51,11.28v7.93c0,7.93,4.53,10.71,14.56,10.71l10.48,0C106.7,61.83,111.06,59.11,111.06,50.95
			L111.06,50.95z M100.58,48.79c0,3.91-2.04,5.16-6.8,5.16l-4.93,0c-4.82,0-6.86-1.3-6.86-5.1l0-3.74c0-4.08,1.76-5.33,6.86-5.33
			l4.93,0c4.82,0,6.8,1.36,6.8,5.16L100.58,48.79L100.58,48.79z"/>
		<path style="fill-rule:evenodd;clip-rule:evenodd;fill:#FFFFFF;" d="M154.7,52.02c0-6.35-3.4-9.12-10.82-9.24l-12.8-0.17
			c-3.4-0.06-4.93-0.28-4.93-1.93c0-1.47,1.25-1.87,3.8-1.87l7.31,0c2.95,0,4.7,0.57,5.21,1.7l10.48,0
			c-0.06-5.89-3.63-8.61-11.22-8.61l-11.9,0c-9.8,0-14.22,2.38-14.22,9.41c0,7.02,4.48,8.72,13.88,8.9l10.37,0.17
			c2.89,0.06,4.31,0.74,4.31,2.27c0,1.7-1.25,2.27-4.19,2.27l-7.65,0c-3.85,0-5.72-0.74-5.72-2.61v-0.12h-11.11
			c0.11,7.99,4.65,9.63,15.47,9.63l10.65,0C150.73,61.83,154.7,59.62,154.7,52.02L154.7,52.02z"/>
		<path style="fill-rule:evenodd;clip-rule:evenodd;fill:#FFFFFF;" d="M190.24,50.61c0-0.79,0-1.64-0.11-2.55l-9.29,0
			c0.06,0.62,0.11,1.19,0.11,1.7c0,3.12-1.19,4.19-4.53,4.19c-3.06,0-4.08-1.19-4.08-4.14V39.9l16.38,0v-7.59l-16.38,0v-6.97
			l-10.48,0v6.97l-5.89,0v7.59h5.89v11.84c0,7.54,3.74,10.09,13.6,10.09C185.82,61.83,190.24,58.66,190.24,50.61L190.24,50.61z"/>
		<path style="fill-rule:evenodd;clip-rule:evenodd;fill:#FFFFFF;" d="M232.85,50.95v-8.1c0-7.76-4.19-10.93-14.5-10.93l-10.54,0
			c-10.77,0-14.5,3.12-14.5,11.28v7.93c0,7.93,4.53,10.71,14.56,10.71l10.48,0C228.48,61.83,232.85,59.11,232.85,50.95L232.85,50.95
			z M222.37,48.79c0,3.91-2.04,5.16-6.8,5.16h-4.93c-4.82,0-6.86-1.3-6.86-5.1v-3.74c0-4.08,1.76-5.33,6.86-5.33h4.93
			c4.82,0,6.8,1.36,6.8,5.16V48.79L222.37,48.79z"/>
		<path style="fill-rule:evenodd;clip-rule:evenodd;fill:#FFFFFF;" d="M276.49,52.02c0-6.35-3.4-9.12-10.82-9.24l-12.81-0.17
			c-3.4-0.06-4.93-0.28-4.93-1.93c0-1.47,1.25-1.87,3.8-1.87h7.31c2.95,0,4.7,0.57,5.21,1.7l10.48,0
			c-0.06-5.89-3.63-8.61-11.22-8.61l-11.9,0c-9.8,0-14.22,2.38-14.22,9.41c0,7.02,4.48,8.72,13.88,8.9l10.37,0.17
			c2.89,0.06,4.31,0.74,4.31,2.27c0,1.7-1.25,2.27-4.19,2.27h-7.65c-3.85,0-5.72-0.74-5.72-2.61v-0.12l-11.11,0
			c0.11,7.99,4.65,9.63,15.47,9.63l10.65,0C272.52,61.83,276.49,59.62,276.49,52.02L276.49,52.02z"/>
		<path style="fill-rule:evenodd;clip-rule:evenodd;fill:#FFFFFF;" d="M312.02,50.61c0-0.79,0-1.64-0.11-2.55l-9.29,0
			c0.06,0.62,0.11,1.19,0.11,1.7c0,3.12-1.19,4.19-4.53,4.19c-3.06,0-4.08-1.19-4.08-4.14V39.9l16.38,0v-7.59l-16.38,0v-6.97
			l-10.48,0v6.97h-5.89v7.59l5.89,0v11.84c0,7.54,3.74,10.09,13.6,10.09C307.6,61.83,312.02,58.66,312.02,50.61L312.02,50.61z"/>
		<path style="fill-rule:evenodd;clip-rule:evenodd;fill:#FFFFFF;" d="M352.59,61.43V41.54c0-6.57-3.8-9.63-11.67-9.63l-10.26,0
			c-10.14,0-14.79,2.27-14.79,8.67v0.34l10.54,0c0-1.53,0.96-2.21,3.06-2.21l8.56,0c2.66,0,4.08,1.13,4.08,3.17V45
			c-2.55-1.81-6.74-2.49-12.86-2.49c-10.65,0-14.73,1.87-14.73,9.58c0,7.59,3.68,9.74,14,9.74c6.91,0,11.39-1.13,13.6-3.91v3.51
			L352.59,61.43L352.59,61.43z M342,51.63c0,2.32-1.64,3-5.21,3l-6.4,0c-3.63,0-5.21-0.45-5.21-2.77c0-2.32,1.64-3,5.21-3h6.4
			C340.41,48.85,342,49.3,342,51.63L342,51.63z"/>
		<polygon style="fill-rule:evenodd;clip-rule:evenodd;fill:#FFFFFF;" points="369.25,61.43 369.25,20.24 358.77,20.24 
			358.77,61.43 369.25,61.43 		"/>
		<path style="fill-rule:evenodd;clip-rule:evenodd;fill:#E30613;" d="M250.66,70.15c0-1.89-1.29-3-3.52-3h-7.84l0,10.79h1.68v-4.71
			h6.34C249.42,73.23,250.66,71.85,250.66,70.15L250.66,70.15z M248.93,70.17c0,0.93-0.62,1.48-1.79,1.48h-6.16v-2.92h6.24
			C248.33,68.72,248.93,69.27,248.93,70.17L248.93,70.17z"/>
		<polygon style="fill-rule:evenodd;clip-rule:evenodd;fill:#E30613;" points="279.58,77.93 279.58,76.38 271.53,76.38 
			271.53,72.42 275.05,70.38 275.05,68.77 271.53,70.82 271.53,67.14 269.84,67.14 269.84,71.78 268.76,72.4 268.76,73.97 
			269.84,73.35 269.84,77.93 279.58,77.93 		"/>
		<path style="fill-rule:evenodd;clip-rule:evenodd;fill:#FFFFFF;" d="M8.76,76.91l0-5.02H4.67l0,0.8H7.9v0.04
			c0,2.3-1.27,3.65-3.42,3.65c-2.08,0-3.42-1.67-3.42-4.4c0-2.81,1.29-4.32,3.53-4.32c1.67,0,2.85,0.87,3.12,2.3h0.93
			c-0.29-1.95-1.76-3.1-4.06-3.1c-2.68,0-4.44,1.89-4.44,5.13c0,3.24,1.69,5.19,4.38,5.19c1.57,0,2.82-0.75,3.42-2l0.1,1.73H8.76
			L8.76,76.91z"/>
		<path style="fill-rule:evenodd;clip-rule:evenodd;fill:#FFFFFF;" d="M14.97,70.52v-0.84h-0.09c-1.02,0-1.76,0.44-2.18,1.42l0-1.24
			h-0.79l0,7.06h0.82l0-3.92c0-1.63,0.74-2.48,2.14-2.48H14.97L14.97,70.52z"/>
		<path style="fill-rule:evenodd;clip-rule:evenodd;fill:#FFFFFF;" d="M22.96,76.91l0-7.06h-0.82v4.18c0,1.46-0.84,2.35-2.19,2.35
			c-1.29,0-1.73-0.63-1.73-1.97l0-4.56h-0.82l0,4.75c0,1.66,0.79,2.5,2.4,2.5c1.06,0,1.82-0.42,2.37-1.32l0,1.13H22.96L22.96,76.91z
			"/>
		<path style="fill-rule:evenodd;clip-rule:evenodd;fill:#FFFFFF;" d="M32.59,73.39c0-2.34-1.21-3.72-3.13-3.72
			c-1.14,0-1.93,0.46-2.48,1.44v-1.26h-0.82l0,9.91h0.82v-4.07c0.56,0.95,1.35,1.42,2.44,1.42C31.35,77.11,32.59,75.74,32.59,73.39
			L32.59,73.39z M31.74,73.39c0,1.95-0.9,2.99-2.41,2.99c-1.48,0-2.38-1.1-2.38-2.99c0-1.95,0.87-2.99,2.38-2.99
			C30.84,70.39,31.74,71.45,31.74,73.39L31.74,73.39z"/>
		<path style="fill-rule:evenodd;clip-rule:evenodd;fill:#FFFFFF;" d="M41.56,76.91V76.3c-0.14,0.01-0.24,0.01-0.3,0.01
			c-0.49,0-0.5-0.19-0.5-0.65v-3.85c0-1.4-0.9-2.14-2.59-2.14c-1.73,0-2.78,0.9-2.8,2.29l0.8,0c0.05-1.03,0.73-1.56,2-1.56
			c1.29,0,1.76,0.48,1.76,1.54c0,0.72-0.25,0.71-1.24,0.91c-0.94,0.08-1.8,0.09-2.55,0.43c-0.73,0.34-1.13,0.95-1.13,1.77
			c0,1.22,0.9,2.04,2.34,2.04c0.99,0,1.87-0.39,2.61-1.2V76c0,0.65,0.34,0.98,1.01,0.98C41.1,76.98,41.3,76.97,41.56,76.91
			L41.56,76.91z M39.94,74.19c0.01,1.36-1.02,2.18-2.49,2.18c-0.98,0-1.59-0.53-1.59-1.34c0-0.72,0.54-1.22,1.58-1.5
			c1.04-0.06,1.89-0.11,2.49-0.34L39.94,74.19L39.94,74.19z"/>
		<polygon style="fill-rule:evenodd;clip-rule:evenodd;fill:#FFFFFF;" points="57.82,76.91 57.82,67.13 56.56,67.13 53.38,75.74 
			50.16,67.13 48.89,67.13 48.89,76.91 49.79,76.91 49.79,68.38 52.98,76.91 53.81,76.91 56.92,68.38 56.92,76.91 57.82,76.91 		"/>
		<path style="fill-rule:evenodd;clip-rule:evenodd;fill:#FFFFFF;" d="M67.03,73.39c0-2.37-1.2-3.72-3.25-3.72
			c-2.06,0-3.24,1.35-3.24,3.72c0,2.37,1.18,3.7,3.24,3.7C65.83,77.09,67.03,75.76,67.03,73.39L67.03,73.39z M66.19,73.39
			c0,1.93-0.9,2.98-2.41,2.98c-1.5,0-2.4-1.05-2.4-2.98c0-1.93,0.9-2.99,2.4-2.99C65.29,70.39,66.19,71.45,66.19,73.39L66.19,73.39z
			"/>
		<path style="fill-rule:evenodd;clip-rule:evenodd;fill:#FFFFFF;" d="M74.97,75.08c0-1.14-0.65-1.62-2.15-1.99
			c-1.47-0.35-2.3-0.45-2.3-1.48c0-0.71,0.59-1.21,1.58-1.21c1.12,0,1.78,0.57,1.84,1.52h0.84c-0.1-1.4-1.08-2.25-2.67-2.25
			c-1.46,0-2.44,0.84-2.44,2.04c0,1.22,0.86,1.62,2.55,2.03c1.25,0.3,1.91,0.45,1.91,1.32c0,0.78-0.68,1.32-1.89,1.32
			c-1.09,0-1.85-0.69-1.87-1.67h-0.84c0.04,1.46,1.1,2.4,2.75,2.4C73.94,77.11,74.97,76.25,74.97,75.08L74.97,75.08z"/>
		<path style="fill-rule:evenodd;clip-rule:evenodd;fill:#FFFFFF;" d="M79.96,76.94v-0.65c-0.31,0.07-0.57,0.14-0.79,0.14
			c-0.45,0-0.52-0.25-0.52-0.76v-5.15h1.31v-0.67h-1.31v-2.03h-0.82v2.03h-0.97v0.67h0.97l0,5.15c0,0.97,0.2,1.43,1.12,1.43
			C79.27,77.09,79.6,77.04,79.96,76.94L79.96,76.94z"/>
		<path style="fill-rule:evenodd;clip-rule:evenodd;fill:#FFFFFF;" d="M88.62,73.39c0-2.37-1.2-3.72-3.25-3.72
			c-2.06,0-3.24,1.35-3.24,3.72c0,2.37,1.18,3.7,3.24,3.7C87.42,77.09,88.62,75.76,88.62,73.39L88.62,73.39z M87.77,73.39
			c0,1.93-0.9,2.98-2.41,2.98c-1.5,0-2.4-1.05-2.4-2.98c0-1.93,0.9-2.99,2.4-2.99C86.88,70.39,87.77,71.45,87.77,73.39L87.77,73.39z
			"/>
		<path style="fill-rule:evenodd;clip-rule:evenodd;fill:#FFFFFF;" d="M96.56,75.08c0-1.14-0.65-1.62-2.15-1.99
			c-1.47-0.35-2.3-0.45-2.3-1.48c0-0.71,0.59-1.21,1.58-1.21c1.12,0,1.78,0.57,1.84,1.52h0.84c-0.09-1.4-1.08-2.25-2.67-2.25
			c-1.46,0-2.44,0.84-2.44,2.04c0,1.22,0.86,1.62,2.55,2.03c1.25,0.3,1.91,0.45,1.91,1.32c0,0.78-0.68,1.32-1.89,1.32
			c-1.09,0-1.85-0.69-1.86-1.67h-0.84c0.04,1.46,1.1,2.4,2.75,2.4C95.53,77.11,96.56,76.25,96.56,75.08L96.56,75.08z"/>
		<path style="fill-rule:evenodd;clip-rule:evenodd;fill:#FFFFFF;" d="M101.55,76.94v-0.65c-0.31,0.07-0.57,0.14-0.79,0.14
			c-0.45,0-0.52-0.25-0.52-0.76v-5.15h1.31v-0.67h-1.31v-2.03h-0.82v2.03h-0.97v0.67h0.97v5.15c0,0.97,0.2,1.43,1.12,1.43
			C100.86,77.09,101.19,77.04,101.55,76.94L101.55,76.94z"/>
		<path style="fill-rule:evenodd;clip-rule:evenodd;fill:#FFFFFF;" d="M110.4,76.91V76.3c-0.14,0.01-0.25,0.01-0.3,0.01
			c-0.49,0-0.5-0.19-0.5-0.65v-3.85c0-1.4-0.9-2.14-2.59-2.14c-1.73,0-2.78,0.9-2.8,2.29h0.8c0.05-1.03,0.74-1.56,2-1.56
			c1.29,0,1.76,0.48,1.76,1.54c0,0.72-0.24,0.71-1.24,0.91c-0.94,0.08-1.8,0.09-2.55,0.43c-0.73,0.34-1.13,0.95-1.13,1.77
			c0,1.22,0.9,2.04,2.34,2.04c0.99,0,1.86-0.39,2.61-1.2V76c0,0.65,0.34,0.98,1.01,0.98C109.93,76.98,110.14,76.97,110.4,76.91
			L110.4,76.91z M108.78,74.19c0.01,1.36-1.02,2.18-2.49,2.18c-0.98,0-1.59-0.53-1.59-1.34c0-0.72,0.54-1.22,1.58-1.5
			c1.03-0.06,1.89-0.11,2.49-0.34L108.78,74.19L108.78,74.19z"/>
		<polygon style="fill-rule:evenodd;clip-rule:evenodd;fill:#FFFFFF;" points="113.74,76.91 113.74,67.13 112.92,67.13 
			112.92,76.91 113.74,76.91 		"/>
		<polygon style="fill-rule:evenodd;clip-rule:evenodd;fill:#FFFFFF;" points="132.41,67.13 131.55,67.13 129.35,75.57 
			127.21,67.13 126.11,67.13 123.94,75.57 121.77,67.13 120.88,67.13 123.41,76.91 124.38,76.91 126.64,68.21 128.86,76.91 
			129.84,76.91 132.41,67.13 		"/>
		<path style="fill-rule:evenodd;clip-rule:evenodd;fill:#FFFFFF;" d="M140.68,76.91V76.3c-0.14,0.01-0.24,0.01-0.3,0.01
			c-0.49,0-0.5-0.19-0.5-0.65v-3.85c0-1.4-0.9-2.14-2.59-2.14c-1.73,0-2.78,0.9-2.8,2.29h0.8c0.05-1.03,0.73-1.56,2-1.56
			c1.29,0,1.76,0.48,1.76,1.54c0,0.72-0.25,0.71-1.24,0.91c-0.94,0.08-1.8,0.09-2.55,0.43c-0.73,0.34-1.13,0.95-1.13,1.77
			c0,1.22,0.9,2.04,2.34,2.04c0.99,0,1.87-0.39,2.61-1.2V76c0,0.65,0.34,0.98,1.01,0.98C140.22,76.98,140.42,76.97,140.68,76.91
			L140.68,76.91z M139.06,74.19c0.01,1.36-1.02,2.18-2.49,2.18c-0.98,0-1.59-0.53-1.59-1.34c0-0.72,0.54-1.22,1.58-1.5
			c1.04-0.06,1.89-0.11,2.49-0.34L139.06,74.19L139.06,74.19z"/>
		<path style="fill-rule:evenodd;clip-rule:evenodd;fill:#FFFFFF;" d="M146.18,70.52v-0.84h-0.1c-1.02,0-1.76,0.44-2.18,1.42v-1.24
			h-0.79v7.06h0.82v-3.92c0-1.63,0.74-2.48,2.14-2.48H146.18L146.18,70.52z"/>
		<path style="fill-rule:evenodd;clip-rule:evenodd;fill:#FFFFFF;" d="M153.79,75.08c0-1.14-0.65-1.62-2.15-1.99
			c-1.47-0.35-2.3-0.45-2.3-1.48c0-0.71,0.59-1.21,1.58-1.21c1.12,0,1.78,0.57,1.84,1.52h0.84c-0.09-1.4-1.08-2.25-2.67-2.25
			c-1.46,0-2.44,0.84-2.44,2.04c0,1.22,0.86,1.62,2.55,2.03c1.25,0.3,1.91,0.45,1.91,1.32c0,0.78-0.68,1.32-1.89,1.32
			c-1.09,0-1.85-0.69-1.86-1.67h-0.84c0.04,1.46,1.1,2.4,2.75,2.4C152.75,77.11,153.79,76.25,153.79,75.08L153.79,75.08z"/>
		<polygon style="fill-rule:evenodd;clip-rule:evenodd;fill:#FFFFFF;" points="161.79,76.91 161.79,76.25 157.08,76.25 
			161.59,70.57 161.59,69.85 156.26,69.85 156.26,70.52 160.6,70.52 156.03,76.23 156.03,76.91 161.79,76.91 		"/>
		<path style="fill-rule:evenodd;clip-rule:evenodd;fill:#FFFFFF;" d="M170.52,76.91V76.3c-0.14,0.01-0.25,0.01-0.3,0.01
			c-0.49,0-0.5-0.19-0.5-0.65v-3.85c0-1.4-0.9-2.14-2.59-2.14c-1.73,0-2.78,0.9-2.8,2.29h0.8c0.05-1.03,0.73-1.56,2-1.56
			c1.29,0,1.76,0.48,1.76,1.54c0,0.72-0.24,0.71-1.24,0.91c-0.94,0.08-1.8,0.09-2.55,0.43c-0.74,0.34-1.13,0.95-1.13,1.77
			c0,1.22,0.9,2.04,2.34,2.04c0.99,0,1.86-0.39,2.61-1.2V76c0,0.65,0.34,0.98,1.01,0.98C170.06,76.98,170.26,76.97,170.52,76.91
			L170.52,76.91z M168.9,74.19c0.01,1.36-1.02,2.18-2.49,2.18c-0.98,0-1.59-0.53-1.59-1.34c0-0.72,0.54-1.22,1.58-1.5
			c1.04-0.06,1.89-0.11,2.49-0.34L168.9,74.19L168.9,74.19z"/>
		<polygon style="fill-rule:evenodd;clip-rule:evenodd;fill:#FFFFFF;" points="181.47,69.85 180.64,69.85 178.83,75.76 
			177.24,69.85 176.32,69.85 174.7,75.76 172.88,69.85 172.05,69.85 174.27,76.91 175.13,76.91 176.75,71.01 178.38,76.91 
			179.25,76.91 181.47,69.85 		"/>
		<path style="fill-rule:evenodd;clip-rule:evenodd;fill:#FFFFFF;" d="M189.92,76.91V76.3c-0.14,0.01-0.24,0.01-0.3,0.01
			c-0.49,0-0.5-0.19-0.5-0.65v-3.85c0-1.4-0.9-2.14-2.59-2.14c-1.73,0-2.78,0.9-2.81,2.29h0.8c0.05-1.03,0.73-1.56,2-1.56
			c1.29,0,1.76,0.48,1.76,1.54c0,0.72-0.25,0.71-1.24,0.91c-0.94,0.08-1.8,0.09-2.55,0.43c-0.73,0.34-1.13,0.95-1.13,1.77
			c0,1.22,0.9,2.04,2.34,2.04c0.99,0,1.87-0.39,2.61-1.2V76c0,0.65,0.34,0.98,1.01,0.98C189.45,76.98,189.66,76.97,189.92,76.91
			L189.92,76.91z M188.3,74.19c0.01,1.36-1.02,2.18-2.49,2.18c-0.98,0-1.59-0.53-1.59-1.34c0-0.72,0.54-1.22,1.58-1.5
			c1.04-0.06,1.89-0.11,2.49-0.34L188.3,74.19L188.3,74.19z"/>
		<path style="fill-rule:evenodd;clip-rule:evenodd;fill:#E30613;" d="M310.95,72.86c0-3.25-2.65-5.72-6.65-5.72
			c-3.98,0-6.63,2.49-6.63,5.72c0,3.2,2.65,5.74,6.63,5.74C308.3,78.6,310.95,76.08,310.95,72.86L310.95,72.86L310.95,72.86z
			 M309.21,72.86c0,2.31-1.9,4.16-4.91,4.16c-2.96,0-4.88-1.82-4.88-4.16c0-2.34,1.92-4.16,4.88-4.16
			C307.29,68.7,309.21,70.55,309.21,72.86L309.21,72.86L309.21,72.86z"/>
		<path style="fill-rule:evenodd;clip-rule:evenodd;fill:#E30613;" d="M341.44,75.61l-1.35-0.94c-1.12,1.58-2.55,2.34-4.5,2.34
			c-2.78,0-4.81-1.79-4.81-4.16c0-2.36,2-4.16,4.81-4.16c1.82,0,3.33,0.7,4.21,1.92l1.35-0.94c-1.17-1.61-3.17-2.55-5.56-2.55
			c-3.85,0-6.55,2.47-6.55,5.74c0,3.27,2.7,5.72,6.55,5.72C338.17,78.6,340.22,77.54,341.44,75.61L341.44,75.61L341.44,75.61z"/>
		<polygon style="fill-rule:evenodd;clip-rule:evenodd;fill:#E30613;" points="369.88,77.95 364.66,70.99 369.2,67.14 366.97,67.14 
			361.23,71.95 361.23,67.14 359.54,67.14 359.54,77.95 361.23,77.95 361.23,73.87 363.46,71.98 367.98,77.95 369.88,77.95 		"/>
	</g>
	<g>
		<g>
			<path style="fill-rule:evenodd;clip-rule:evenodd;fill:#FFFFFF;" d="M529.39,54.6c0.06-0.38,0.12-0.79,0.13-1.22l-4.21-0.02
				c-0.02,0.3-0.03,0.57-0.07,0.82c-0.22,1.49-0.84,2.01-2.35,2c-1.39-0.01-1.76-0.58-1.55-1.99l0.71-4.76l7.42,0.04l0.54-3.64
				l-7.42-0.04l0.5-3.34l-4.75-0.03l-0.5,3.34l-2.67-0.01l-0.54,3.64l2.67,0.01l-0.84,5.68c-0.54,3.61,0.97,4.85,5.44,4.87
				C526.59,59.97,528.81,58.46,529.39,54.6L529.39,54.6z"/>
			<path style="fill-rule:evenodd;clip-rule:evenodd;fill:#FFFFFF;" d="M512.27,59.7l1.42-9.54c0.47-3.15-1.03-4.63-4.6-4.65
				l-4.64-0.03c-4.59-0.03-6.86,1.05-7.32,4.12l-0.02,0.16l4.77,0.03c0.11-0.73,0.59-1.06,1.54-1.05l3.87,0.02
				c1.21,0.01,1.77,0.55,1.62,1.53l-0.22,1.49c-1.03-0.88-2.88-1.21-5.65-1.23c-4.82-0.03-6.81,0.86-7.35,4.56
				c-0.54,3.64,0.97,4.68,5.64,4.71c3.13,0.02,5.24-0.52,6.44-1.84l-0.25,1.68L512.27,59.7L512.27,59.7z M508.18,54.97
				c-0.17,1.11-0.96,1.44-2.57,1.43l-2.9-0.02c-1.64-0.01-2.33-0.23-2.16-1.34c0.17-1.11,0.96-1.44,2.57-1.43l2.9,0.02
				C507.66,53.64,508.34,53.86,508.18,54.97L508.18,54.97z"/>
			<polygon style="fill-rule:evenodd;clip-rule:evenodd;fill:#FFFFFF;" points="493.45,59.79 496.39,40.03 491.64,40 488.7,59.76 
				493.45,59.79 			"/>
		</g>
		<path style="fill:#FFFFFF;" d="M445.84,40.38c0.44-4.42-0.52-5.01-8.12-5.05c-6.89-0.03-8.67,0.26-10.06,1.5
			c-1.38,1.17-1.95,4.21-2.39,7.82c0,0,4.42,0,12.95,0.04c7.91,0.04,12.69,0.5,15.65,1.54c5.73,1.94,7.64,5.63,6.76,12.85
			c-0.65,5.3-2.29,8.61-5.48,11.17c-4.44,3.52-9.92,4.6-23.08,4.54c-15.83-0.07-21.59-1.72-24.35-6.89
			c-1.85-3.4-2.01-6.27-0.98-14.74c1.48-12.08,2.23-15.76,3.88-19.14c2.07-4.34,6.85-7.26,13.79-8.48c2.94-0.5,6.14-0.64,12.62-0.61
			c13.05,0.06,17.31,0.59,21.56,2.82c4.36,2.16,5.67,5.77,4.82,12.69L445.84,40.38z M423.5,59.14c-0.58,4.71,0.67,5.46,8.69,5.49
			c8.94,0.04,10.36-0.62,10.91-5.11c0.54-4.42-0.32-4.94-8.24-4.97C425.3,54.51,424,55.02,423.5,59.14z"/>
		<g>
			<path style="fill:#FFFFFF;" d="M485.78,64.21c-3.61-0.02-6.15-3.09-5.69-6.87l1.77-14.52c0.46-3.78,3.76-6.83,7.36-6.81
				l31.95,0.14c0.53,0,1.03,0.07,1.5,0.2c-0.58-4.16-2.85-6.8-7.55-8.84c-3.9-1.71-8.47-2.25-18.74-2.29
				c-6.06-0.03-11.97,0.31-14.7,0.82c-4.63,0.86-8.9,2.98-11.48,5.55c-3.05,3.08-3.76,5.51-5.32,18.32
				c-0.79,6.48-1.09,9.79-1.04,11.86c-0.04,5.38,2.24,8.63,7.6,11.01c3.71,1.64,8.88,2.25,18.74,2.29
				c6.37,0.03,11.97-0.31,14.81-0.82c4.63-0.86,8.79-2.91,11.48-5.55c1.32-1.33,2.2-2.55,2.91-4.55c-0.54,0.14-1.09,0.21-1.65,0.21
				L485.78,64.21z"/>
		</g>
	</g>
	
		<rect x="338.09" y="49.86" transform="matrix(6.123234e-17 -1 1 6.123234e-17 338.0569 438.0569)" style="fill:#FFFFFF;" width="99.93" height="0.28"/>
</g>
</svg>
