<svg id="nyt_x5F_logo" xmlns="http://www.w3.org/2000/svg" width="151.419" height="24.543" viewBox="0 0 151.419 24.543" class="text-primary col-start-1 col-span-4 md:col-start-2 lg:col-start-3 lg:col-span-full mb-8"><g id="Group_6" data-name="Group 6" transform="translate(0)"><g id="Group_4" data-name="Group 4"><path id="Path_3" data-name="Path 3" d="M5.64,0,9.873,12.444h.051L13.928,0h5.6V18.1H15.8V5.271h-.051L11.317,18.095H8.251L3.816,5.4H3.765v12.7H.04V0Z" transform="translate(-0.04)" fill="currentColor"></path><path id="Path_4" data-name="Path 4" d="M509.891,126.233v-1.825h-.076a4.045,4.045,0,0,1-1.774,1.647,5.239,5.239,0,0,1-2.23.507,6.3,6.3,0,0,1-2.369-.38,3.422,3.422,0,0,1-1.458-1.077,4.22,4.22,0,0,1-.748-1.7,10.569,10.569,0,0,1-.216-2.218V113.13h3.6v7.4a4.584,4.584,0,0,0,.507,2.42,1.963,1.963,0,0,0,1.8.8,2.5,2.5,0,0,0,2.129-.874,4.862,4.862,0,0,0,.659-2.876V113.13h3.6v13.1h-3.421Z" transform="translate(-478.912 -108.138)" fill="currentColor"></path><path id="Path_5" data-name="Path 5" d="M822.365,115.414a3.691,3.691,0,0,0,4.207.241,2.261,2.261,0,0,0,.963-1.153H830.7a6.016,6.016,0,0,1-2.332,3.371,6.862,6.862,0,0,1-3.8,1.014,7.473,7.473,0,0,1-2.787-.494,5.8,5.8,0,0,1-2.1-1.406,6.324,6.324,0,0,1-1.331-2.18,7.97,7.97,0,0,1-.469-2.788,7.641,7.641,0,0,1,.482-2.737,6.336,6.336,0,0,1,3.485-3.65,6.783,6.783,0,0,1,2.724-.532,6.233,6.233,0,0,1,2.915.646,5.829,5.829,0,0,1,2.04,1.736,7.153,7.153,0,0,1,1.154,2.484,9.263,9.263,0,0,1,.254,2.914h-9.454A3.638,3.638,0,0,0,822.365,115.414Zm4.068-6.893a2.528,2.528,0,0,0-1.964-.71,3.13,3.13,0,0,0-1.432.292,2.723,2.723,0,0,0-.913.722,2.651,2.651,0,0,0-.482.912,4.1,4.1,0,0,0-.165.862h5.854A4.151,4.151,0,0,0,826.433,108.521Z" transform="translate(-781.789 -100.462)" fill="currentColor"></path><path id="Path_6" data-name="Path 6" d="M1155.479,0V6.818h.076a4.165,4.165,0,0,1,1.748-1.66,4.727,4.727,0,0,1,2.078-.519,6.114,6.114,0,0,1,2.369.393,3.514,3.514,0,0,1,1.458,1.09,4.225,4.225,0,0,1,.747,1.7,10.564,10.564,0,0,1,.216,2.218V18.1h-3.6v-7.4a4.594,4.594,0,0,0-.507-2.42,1.963,1.963,0,0,0-1.8-.8,2.492,2.492,0,0,0-2.128.874,4.861,4.861,0,0,0-.659,2.877V18.1h-3.6V0Z" transform="translate(-1101.05)" fill="currentColor"></path><path id="Path_7" data-name="Path 7" d="M1487.639,0V18.1h-3.6V0Z" transform="translate(-1418.552)" fill="currentColor"></path><path id="Path_8" data-name="Path 8" d="M1622.828,0V6.818h.076a4.165,4.165,0,0,1,1.749-1.66,4.726,4.726,0,0,1,2.078-.519,6.114,6.114,0,0,1,2.369.393,3.513,3.513,0,0,1,1.458,1.09,4.225,4.225,0,0,1,.748,1.7,10.58,10.58,0,0,1,.216,2.218V18.1h-3.6v-7.4a4.6,4.6,0,0,0-.507-2.42,1.964,1.964,0,0,0-1.8-.8,2.492,2.492,0,0,0-2.128.874,4.859,4.859,0,0,0-.659,2.877V18.1h-3.6V0Z" transform="translate(-1547.776)" fill="currentColor"></path><path id="Path_9" data-name="Path 9" d="M1937.266,109.484a4.18,4.18,0,0,1,.634-2.1,4.311,4.311,0,0,1,1.419-1.343,6.2,6.2,0,0,1,1.939-.722,11.037,11.037,0,0,1,2.167-.215,14.737,14.737,0,0,1,2,.139,6.148,6.148,0,0,1,1.85.545,3.646,3.646,0,0,1,1.369,1.128,3.154,3.154,0,0,1,.532,1.914v6.817a13.623,13.623,0,0,0,.1,1.7,3.052,3.052,0,0,0,.355,1.217h-3.649a5.091,5.091,0,0,1-.165-.621,5.3,5.3,0,0,1-.089-.646,4.693,4.693,0,0,1-2.028,1.242,8.138,8.138,0,0,1-2.382.355,6.428,6.428,0,0,1-1.749-.228,4.007,4.007,0,0,1-1.419-.71,3.294,3.294,0,0,1-.95-1.217,4.108,4.108,0,0,1-.342-1.749,3.81,3.81,0,0,1,.393-1.837,3.278,3.278,0,0,1,1.014-1.153,4.543,4.543,0,0,1,1.419-.646,15.253,15.253,0,0,1,1.61-.342q.81-.126,1.6-.2a9.606,9.606,0,0,0,1.394-.228,2.436,2.436,0,0,0,.963-.444.974.974,0,0,0,.33-.849,1.9,1.9,0,0,0-.19-.925,1.394,1.394,0,0,0-.507-.532,2,2,0,0,0-.735-.253,6.057,6.057,0,0,0-.9-.064,2.732,2.732,0,0,0-1.673.456,2.037,2.037,0,0,0-.71,1.521h-3.6Zm8.313,2.661a1.611,1.611,0,0,1-.57.317,5.91,5.91,0,0,1-.735.19q-.393.076-.824.127t-.861.127a6.561,6.561,0,0,0-.8.2,2.366,2.366,0,0,0-.684.342,1.625,1.625,0,0,0-.469.545,1.755,1.755,0,0,0-.177.836,1.693,1.693,0,0,0,.177.811,1.358,1.358,0,0,0,.482.519,2.033,2.033,0,0,0,.71.266,4.52,4.52,0,0,0,.837.076,3.177,3.177,0,0,0,1.647-.355,2.379,2.379,0,0,0,.862-.849,2.724,2.724,0,0,0,.342-1,6.919,6.919,0,0,0,.063-.811v-1.343Z" transform="translate(-1851.389 -100.462)" fill="currentColor"></path><path id="Path_10" data-name="Path 10" d="M2272.851,105.445v1.825h.076a4.127,4.127,0,0,1,1.774-1.66,5.133,5.133,0,0,1,2.23-.519,6.113,6.113,0,0,1,2.369.393,3.516,3.516,0,0,1,1.458,1.09,4.228,4.228,0,0,1,.748,1.7,10.58,10.58,0,0,1,.216,2.217v8.059h-3.6v-7.4a4.592,4.592,0,0,0-.507-2.42,1.963,1.963,0,0,0-1.8-.8,2.492,2.492,0,0,0-2.128.874,4.861,4.861,0,0,0-.659,2.877v6.868h-3.6v-13.1Z" transform="translate(-2169.283 -100.452)" fill="currentColor"></path></g><g id="Group_5" data-name="Group 5" transform="translate(125.876)"><path id="Path_11" data-name="Path 11" d="M2875.149,0h-19.8a2.819,2.819,0,0,0-2.874,2.761V21.782a2.819,2.819,0,0,0,2.874,2.761h19.8a2.819,2.819,0,0,0,2.874-2.761V2.761A2.819,2.819,0,0,0,2875.149,0Zm1.6,21.782a1.568,1.568,0,0,1-1.6,1.534h-19.8a1.568,1.568,0,0,1-1.6-1.534V2.761a1.568,1.568,0,0,1,1.6-1.534h19.8a1.568,1.568,0,0,1,1.6,1.534Z" transform="translate(-2852.48)" fill="currentColor"></path><path id="Path_12" data-name="Path 12" d="M2937.317,141.592a1.772,1.772,0,0,1-1.451-2.51l2.506-6.991h-3.854c-.976,2.573-1.965,5.147-2.936,7.726a2.809,2.809,0,0,1-2.739,1.47,2.032,2.032,0,0,1-1.56-2.409l2.485-6.788h-3.858l-6.63,16.842h3.934c.784-1.983,1.518-3.848,2.29-5.83,2.253,2.979,5.515,1.854,7.9.117,1.429,1.688,2.213,1.668,4.3,1.735l1.35-3.486A5.24,5.24,0,0,1,2937.317,141.592Z" transform="translate(-2916.332 -127.261)" fill="currentColor"></path></g></g></svg>