<?xml version="1.0" encoding="UTF-8"?><svg id="a" xmlns="http://www.w3.org/2000/svg" width="278" height="63.83" viewBox="0 0 278 63.83"><g><g><g><polygon points="171.36 7.03 171.36 7.03 169.66 15.88 176.28 15.88 176.6 14.2 172.31 14.2 172.68 12.29 176.31 12.29 176.63 10.61 173 10.61 173.37 8.7 177.66 8.7 177.98 7.03 171.36 7.03" style="fill:#0a1d64;"/><path d="M231.07,21.77c1.22-.08,1.93,.27,2.17,.35l.29-1.42c-.58-.18-1.39-.28-2.22-.28-1.31,0-4.27,.29-4.36,2.86-.03,1,.83,1.58,1.83,2.05,.89,.42,1.75,.8,1.8,1.38,.05,.59-.63,1.45-2,1.46-.91,0-1.67-.22-2.34-.51l-.3,1.62c.77,.2,1.83,.28,2.64,.28,1.42,0,2.55-.25,3.31-.73,.89-.56,1.32-1.24,1.39-2.12,.12-1.55-1.27-2.22-2.59-2.7-.8-.29-1.36-.56-1.36-1.06,0-.71,.83-1.12,1.74-1.17Z" style="fill:#0a1d64;"/><path d="M272.76,29.41h2.33l-1.7-8.85h-3.13l-4.58,8.85h2.24l1.03-2.03h3.44l.37,2.03Zm-2.96-3.71l1.68-3.31,.6,3.31h-2.28Z" style="fill:#0a1d64;"/><path d="M206.65,9.76c.21-1.06-.3-1.86-1.17-2.29-.65-.32-1.5-.45-2.94-.45h-2.63l-1.7,8.85h2.33l.64-3.4h.52s.1,0,.15,0h0s.28,0,.28,0c.71,0,1.01,.54,1.15,1.37l.37,2.03h2.56l-.69-2.62c-.15-.6-.6-1.22-1.04-1.42,1.32-.39,1.97-1.08,2.16-2.07Zm-5.18,1.2l.49-2.48h.64c1.46,0,2.01,.38,1.79,1.33-.2,.85-.83,1.14-2.47,1.14h-.45Z" style="fill:#0a1d64;"/><path d="M174.43,21c-.66-.3-1.63-.44-3.07-.44h-2.63l-1.7,8.86h2.33l.59-3.04h.52c1.22,0,2.28-.15,2.97-.43,1.22-.48,2.03-1.4,2.25-2.52,.21-1.07-.26-1.97-1.24-2.43m-1.07,2.51c-.19,.98-1.05,1.44-2.69,1.44h-.45l.56-2.92h.57c1.59,0,2.21,.45,2.01,1.48" style="fill:#0a1d64;"/><polygon points="237.65 27.58 238.18 24.84 240.55 23.68 240.81 22.33 238.44 23.49 239 20.56 236.67 20.56 235.86 24.75 234.51 25.41 234.25 26.76 235.6 26.1 234.97 29.42 235.38 29.42 235.38 29.42 241.56 29.42 241.92 27.58 237.65 27.58" style="fill:#0a1d64;"/><polygon points="264.61 20.56 262.07 26.39 261.67 20.56 259.03 20.56 256.4 26.36 256.23 20.56 253.85 20.56 254.33 29.42 257.15 29.42 259.7 23.69 260.15 29.42 262.88 29.42 266.97 20.56 264.61 20.56" style="fill:#0a1d64;"/><path d="M242.8,26.21c0-3.24,2.09-5.65,5.49-5.65,2.29,0,3.92,1.35,3.92,3.49,0,3.38-1.94,5.65-5.54,5.65-1.24,0-2.22-.36-2.87-.98-.65-.62-1-1.49-1-2.51Zm6.32,.51c.39-.75,.62-1.75,.62-2.68,0-.56-.12-1.03-.36-1.37-.3-.43-.77-.65-1.36-.65-.87,0-1.61,.53-2.12,1.54-.46,.9-.62,1.96-.62,2.65,0,.56,.12,1.04,.36,1.39,.29,.43,.74,.65,1.31,.65,.91,0,1.66-.53,2.18-1.53Z" style="fill:#0a1d64;"/><path d="M185.95,7.02s-.84,4.98-.89,5.28c-.07,.41-.07,.96-.07,.96,0,0-.15-.58-.29-.95-.15-.37-2.09-5.29-2.09-5.29h-2.41l-1.7,8.85h2.26s.78-4.61,.86-5.06c.08-.45,.09-1.03,.09-1.03,0,0,.07,.54,.26,1,.15,.36,2.08,5.09,2.08,5.09h2.48l1.7-8.85h-2.28Z" style="fill:#0a1d64;"/><polygon points="190.9 7.02 190.9 7.02 189.2 15.87 195.82 15.87 196.14 14.19 191.85 14.19 192.22 12.28 195.84 12.28 196.17 10.61 192.54 10.61 192.91 8.7 197.2 8.7 197.52 7.02 190.9 7.02" style="fill:#0a1d64;"/><polygon points="219.6 7.02 219.6 7.02 217.9 15.87 224.52 15.87 224.84 14.19 220.55 14.19 220.92 12.28 224.54 12.28 224.87 10.61 221.24 10.61 221.6 8.7 225.9 8.7 226.22 7.02 219.6 7.02" style="fill:#0a1d64;"/><polygon points="235.21 7.02 227.18 7.02 226.82 8.86 229.67 8.86 228.33 15.87 230.66 15.87 232 8.86 234.85 8.86 235.21 7.02" style="fill:#0a1d64;"/><path d="M184.26,23.3c.21-1.06-.3-1.86-1.17-2.29-.65-.32-1.5-.45-2.94-.45h-2.63l-1.7,8.85h2.33l.64-3.4h.52s.1,0,.15,0h0s.28,0,.28,0c.71,0,1.01,.54,1.15,1.37l.37,2.03h2.56l-.69-2.62c-.15-.6-.6-1.22-1.04-1.42,1.32-.39,1.97-1.08,2.16-2.07Zm-5.18,1.2l.49-2.48h.64c1.46,0,2.01,.38,1.79,1.33-.2,.85-.83,1.14-2.47,1.14h-.45Z" style="fill:#0a1d64;"/><polygon points="241.68 7.02 239.13 10.82 238.18 7.02 235.68 7.02 237.3 13.12 236.72 15.87 239.33 15.87 239.93 13.12 244.2 7.02 241.68 7.02" style="fill:#0a1d64;"/><polygon points="196.9 20.56 196.9 20.56 195.2 29.41 201.82 29.41 202.14 27.73 197.85 27.73 198.22 25.82 201.84 25.82 202.17 24.15 198.54 24.15 198.91 22.24 203.2 22.24 203.52 20.56 196.9 20.56" style="fill:#0a1d64;"/><polygon points="215.93 20.56 213.75 20.56 210.34 26.41 209.24 20.56 205.94 20.56 204.23 29.41 206.41 29.41 207.54 23.54 208.64 29.41 210.9 29.41 214.22 23.57 213.09 29.41 215.36 29.41 217.06 20.56 215.93 20.56" style="fill:#0a1d64;"/><path d="M207.87,11.61c-.52,2.71,1.26,4.54,4.42,4.54,1.09,0,2.33-.44,3.25-.19,.41-2.02,.86-4.51,.86-4.51h-3.6s-.31,1.56-.31,1.56h1.33l-.27,1.41c-.32,.09-.54,.11-.93,.11-1.71,0-2.64-1.17-2.31-2.9,.36-1.85,1.94-3.01,4.12-3.01,.84,0,1.57,.12,2.37,.41l.31-1.57c-.94-.31-1.79-.44-2.76-.44-3.33,0-5.95,1.84-6.48,4.59" style="fill:#0a1d64;"/><polygon points="253.4 7.02 250.74 7.02 247.19 10.55 247.83 7.02 245.5 7.02 243.89 15.87 246.22 15.87 246.97 11.74 249.67 15.87 252.31 15.87 249.07 11.18 253.4 7.02" style="fill:#0a1d64;"/><path d="M260.13,15.87h2.33l-1.7-8.85h-3.13l-4.58,8.85h2.24l1.03-2.03h3.44l.37,2.03Zm-2.96-3.71l1.68-3.31,.6,3.31h-2.29Z" style="fill:#0a1d64;"/><polygon points="224.36 20.56 221.81 24.36 220.85 20.56 218.36 20.56 219.98 26.66 219.4 29.41 222.01 29.41 222.61 26.66 226.88 20.56 224.36 20.56" style="fill:#0a1d64;"/></g><g><g><g><path d="M12.19,23.45c.47,1.47,1.92,2.88,5.31,2.7,3.2-.18,10.06-2.46,11.68-9.03-3.81,4.56-10.48,7.09-16.98,6.33" style="fill:#ff6309;"/><path d="M13.11,29.95c-4.05-.59-6.82-3.42-6.64-7.26,.16-3.47,3-6.63,6.24-8.48,1.84-1.04,4.3-2.09,7.68-3.35,4.74-1.77,10.32-4.95,12.07-10.86-4.24,5.9-12.82,7.52-20.93,10.75C4.29,13.63,.34,18.81,.02,23.46c-.22,3.31,1.09,6.43,4.6,8.46,2.45,1.41,5.76,1.99,9.09,1.7,4.2-.28,11.72-1.98,14.01-8.97-3.27,4.07-9.27,6.09-14.62,5.3" style="fill:#ff6309;"/><path d="M18.99,15.71c-2.42,.82-5.08,2.49-6.18,3.94,7.55-.04,16.47-4,18.03-11.13-2.43,3.68-7.23,5.64-11.85,7.19" style="fill:#ff6309;"/></g><path d="M58.29,8.14c-1.69-.77-4.14-1.12-7.81-1.12h-6.7l-4.33,22.54h5.93l1.49-7.73h1.32c3.12,0,5.8-.38,7.55-1.08,3.09-1.21,5.17-3.58,5.71-6.42,.52-2.71-.66-5.01-3.16-6.19m-2.72,6.39c-.48,2.49-2.67,3.67-6.86,3.67h-1.15l1.43-7.44h1.45c4.06,0,5.63,1.15,5.12,3.77m49.46-7.5s-2.13,12.69-2.27,13.45c-.18,1.04-.18,2.44-.18,2.44,0,0-.37-1.48-.74-2.43-.37-.95-5.31-13.47-5.31-13.47h-6.14l-4.34,22.54h5.76s2-11.74,2.19-12.9c.2-1.15,.23-2.62,.23-2.62,0,0,.17,1.37,.65,2.55,.37,.92,5.31,12.97,5.31,12.97h6.31l4.34-22.54h-5.81Zm5.45,22.54h5.72l3.03-15.31h-5.72l-3.02,15.31Zm-48.1-11.21c-1.33,6.9,3.2,11.56,11.27,11.56,2.77,0,5.95-1.13,8.28-.49,1.05-5.16,2.19-11.48,2.19-11.48h-9.18s-.79,3.98-.79,3.98h3.4l-.7,3.59c-.81,.22-1.38,.29-2.36,.29-4.35,0-6.73-2.97-5.88-7.38,.91-4.73,4.93-7.66,10.48-7.66,2.13,0,4,.3,6.03,1.04l.8-4c-2.4-.8-4.55-1.13-7.03-1.13-8.5,0-15.16,4.7-16.51,11.68m76.16-7.59c2.14,0,3.63,.22,5.59,.89l.77-3.99c-2.17-.7-4.08-.99-6.55-.99-8.5,0-15.16,4.7-16.51,11.69-1.33,6.9,3.2,11.56,11.27,11.56,2.77,0,5.95-1.13,8.28-.49,.64-2.53,2.09-11.48,2.09-11.48h-9.08s-.79,3.98-.79,3.98h3.4l-.7,3.59c-.81,.22-1.38,.29-2.36,.29-4.36,0-6.73-2.97-5.88-7.38,.91-4.73,4.93-7.66,10.48-7.66m-24.46,.63h5.72l.88-4.33h-5.72l-.88,4.33Z" style="fill:#0a1d64;"/></g><polygon points="155.53 29.58 159.91 7.04 158.73 7.04 154.35 29.58 155.53 29.58" style="fill:#0a1d64;"/><g><polygon points="46.33 35.23 38.3 35.23 37.95 37.07 40.8 37.07 39.45 44.08 41.78 44.08 43.13 37.07 45.98 37.07 46.33 35.23" style="fill:#0a1d64;"/><polygon points="47.5 35.23 47.5 35.23 45.8 44.08 52.42 44.08 52.74 42.4 48.45 42.4 48.82 40.49 52.44 40.49 52.77 38.82 49.14 38.82 49.51 36.91 53.8 36.91 54.12 35.23 47.5 35.23" style="fill:#0a1d64;"/><path d="M62.51,37.97c.2-1.07-.3-1.86-1.17-2.29-.65-.32-1.5-.46-2.94-.46h-2.63l-1.7,8.85h2.33l.64-3.4h.52s.1,0,.15,0h0s.28,0,.28,0c.71,0,1.01,.54,1.15,1.37l.37,2.03h2.56l-.69-2.62c-.15-.6-.6-1.22-1.04-1.42,1.32-.39,1.97-1.08,2.16-2.07Zm-5.18,1.2l.49-2.47h.64c1.46,0,2.01,.38,1.79,1.33-.2,.85-.83,1.14-2.47,1.14h-.45Z" style="fill:#0a1d64;"/><polygon points="75.17 35.23 72.99 35.23 69.58 41.08 68.48 35.23 65.18 35.23 63.48 44.08 65.65 44.08 66.78 38.21 67.88 44.08 70.14 44.08 73.46 38.24 72.34 44.08 74.6 44.08 76.3 35.23 75.17 35.23" style="fill:#0a1d64;"/><polygon points="76.72 44.08 79.05 44.08 80.75 35.23 78.42 35.23 76.72 44.08" style="fill:#0a1d64;"/><polygon points="90.43 35.23 87.78 35.23 84.22 38.76 84.86 35.23 82.53 35.23 80.92 44.08 83.25 44.08 84 39.95 86.7 44.08 89.35 44.08 86.1 39.39 90.43 35.23" style="fill:#0a1d64;"/><path d="M97.16,44.08h2.33l-1.7-8.85h-3.13l-4.58,8.85h2.24l1.03-2.03h3.44l.37,2.03Zm-2.96-3.71l1.68-3.31,.6,3.31h-2.28Z" style="fill:#0a1d64;"/></g></g></g><polygon points="194.03 22.4 194.38 20.56 186.95 20.56 186.7 22.29 191.24 22.29 185.5 27.57 185.14 29.41 192.97 29.41 193.32 27.6 188.43 27.6 194.03 22.4" style="fill:#0a1d64;"/></g><path d="M68.53,57.49c0,2.98-1.26,4.27-4.4,4.27-1.67,0-2.84-.38-3.55-1.2-.78-.91-.85-2.07-.85-3.61v-5.34h2.69v5.37c0,1.75,.31,2.51,1.72,2.51,1.65,0,1.72-1.02,1.72-3.14v-4.74h2.69v5.88Zm-19.37-1.11c0-.2,0-.39-.03-.61h-5.3v2.08h2.69c-.15,1.07-1.12,1.85-2.53,1.85-1.59,0-2.61-1.13-2.61-3.04s1.03-3.03,2.61-3.03c.88,0,1.57,.38,2.12,1.15l2.34-1.13c-1.03-1.5-2.53-2.28-4.46-2.28-3.05,0-5.29,2.17-5.29,5.19,0,1.39,.54,2.76,1.49,3.72,1,1.01,2.23,1.46,3.81,1.46,3.21,0,5.16-1.94,5.16-5.35m34.78,1.42l-1.01-3.26c-.05-.15-.15-.59-.34-1.32-.18,.73-.3,1.17-.34,1.32l-1,3.26h2.69Zm3.76,3.7h-2.69l-.5-1.77h-3.84l-.51,1.77h-2.69l3.42-9.89h3.38l3.43,9.89Zm-12.39-6.62c0-.96-.62-1.15-1.71-1.15h-.54v2.33h.51c1.15,0,1.74-.21,1.74-1.18m2.62,.08c0,1.31-.49,2.3-1.38,2.83-.68,.4-1.45,.45-2.36,.45h-1.13v3.27h-2.54v-9.91h3.03c1.24,0,2.23,.01,3,.51,.88,.55,1.39,1.58,1.39,2.85m-22.4,.08c0-1.04-.51-1.37-1.63-1.37h-.54v2.6h.5c1.14,0,1.68-.35,1.68-1.23m3.13,6.46h-3.04l-2.27-3.88v3.88h-2.54v-9.91h2.99c1.38,0,2.43,.01,3.28,.66,.72,.55,1.11,1.39,1.11,2.42,0,1.54-.78,2.53-2.23,2.84l2.7,3.98Zm39.67-7.2c-1.24,0-2.21,.83-2.21,2.07,0,1.11,.97,2.07,2.21,2.07,1.1,0,2.07-.97,2.07-2.07,0-1.24-.97-2.07-2.07-2.07m0-3.31c-3.04,0-5.38,2.49-5.38,5.38s2.35,5.25,5.38,5.25,5.25-2.35,5.25-5.25-2.35-5.38-5.25-5.38m9.53,4.83v.14h.55c.83,0,1.24-.41,1.24-1.1s-.41-1.11-1.24-1.11h-.55v2.07Zm5.66,5.52h-4l-1.66-3.31v3.31h-3.18v-10.08h4.14c2.62,0,4,1.24,4,3.45,0,1.38-.83,2.35-1.93,2.49l2.62,4.14Zm16.29,0h-7.46v-10.08h7.04v2.48h-3.87v1.24h2.07v2.35h-2.07v1.24h4.28v2.76Zm10.63,0h-3.04l-3.45-5.25c.14,.55,.14,1.11,.14,1.52v3.73h-3.17v-10.08h3.04l3.45,5.25c0-.69-.14-1.24-.14-1.66v-3.59h3.17v10.08Zm-19.19,0h-6.77v-10.08h3.59v7.32h3.18v2.76Zm22.92-12.56h-54.12v15.05h54.12v-15.05Z" style="fill:#d81e04; fill-rule:evenodd;"/></svg>