<svg version="1.1" id="Warstwa_1" width="170" height="72" xmlns="http://www.w3.org/2000/svg" xmlns:xlink="http://www.w3.org/1999/xlink" x="0px" y="0px" viewBox="0 0 883.716 372.251" style="enable-background:new 0 0 883.716 372.251;" xml:space="preserve" fill="#fff"> <path d="M186.173,372.251C83.907,372.388-0.02,289.55,0,186.088C0.021,82.703,84.144-1.122,188.247,0.011
 C289.878,1.116,372.191,83.707,372.22,186.115C372.249,289.391,288.428,372.329,186.173,372.251 M353.737,186.163
 c0.241-91.146-73.286-166.825-165.893-167.708C94.242,17.561,20.048,92.362,18.46,182.975
 c-1.651,94.411,73.889,169.981,165.868,170.855C279.084,354.728,354.019,277.885,353.737,186.163"></path> <path d="M85.607,244.222c-4.333,3.416-8.579,6.763-13.01,10.257c-1.285-17.558-2.552-34.876-3.838-52.424
 c14.43,7.161,28.668,14.228,42.961,21.32c-0.262,0.608-0.81,0.851-1.236,1.188c-3.933,3.128-7.868,6.251-11.837,9.333
 c-0.599,0.465-0.676,0.728-0.196,1.333c16.677,20.915,36.916,36.675,63.158,43.779c4.206,1.138,8.495,1.855,12.801,2.5
 c1.105,0.166,1.096-0.313,1.096-1.133c-0.018-14.964,0-29.924-0.041-44.886c-0.002-1.169,0.228-1.54,1.479-1.527
 c6.101,0.075,12.202,0.066,18.301,0.007c1.083-0.009,1.387,0.212,1.383,1.349c-0.043,14.964-0.011,29.927-0.063,44.889
 c-0.003,1.274,0.332,1.376,1.469,1.226c23.426-3.118,43.142-13.772,60.32-29.608c5.411-4.988,10.291-10.458,14.927-16.166
 c0.787-0.969,0.789-1.433-0.248-2.222c-4.002-3.042-7.919-6.194-11.865-9.307c-0.242-0.191-0.467-0.395-0.808-0.684
 c14.368-7.132,28.631-14.211,43.101-21.393c-1.283,17.505-2.55,34.834-3.837,52.426c-4.466-3.522-8.772-6.915-13.133-10.353
 c-2.953,5.025-6.078,9.868-9.495,14.521c-11.923,16.23-26.224,29.813-44.087,39.39c-11.711,6.279-24.16,10.257-37.398,11.52
 c-20.89,1.993-40.422-2.488-58.648-12.773c-16.583-9.359-30.009-22.223-41.292-37.442C91.997,254.522,88.735,249.494,85.607,244.222
 "></path> <path d="M237.468,62.26c0.236,0.409,0.114,0.857,0.114,1.28c0.006,13.313-0.012,26.625,0.036,39.938
 c0.004,1.205-0.323,1.446-1.476,1.444c-33.211-0.032-66.419-0.032-99.627-0.005c-1.092,0-1.517-0.14-1.51-1.41
 c0.054-13.355,0.034-26.714,0.034-40.069V62.23c0.603,0.085,0.809,0.516,1.101,0.807c7.916,7.885,15.839,15.765,23.715,23.691
 c0.767,0.773,1.126,0.664,1.822-0.036c7.878-7.926,15.799-15.806,23.667-23.739c0.788-0.794,1.165-0.914,2.027-0.041
 c7.883,7.983,15.831,15.897,23.729,23.866c0.671,0.675,0.983,0.744,1.704,0.025C220.98,78.615,229.201,70.472,237.468,62.26"></path> <path d="M194.289,203.975c0.941,5.262,1.84,10.328,2.766,15.39c0.125,0.672,0.157,1.028-0.746,1.023
 c-6.766-0.036-13.533-0.02-20.301-0.025c-0.129-0.002-0.259-0.047-0.462-0.088c0.847-4.946,1.668-9.885,2.548-14.812
 c0.196-1.092,0.137-1.545-1.212-1.418c-7.921,0.742-15.853,1.364-23.777,2.087c-2.846,0.259-2.839,0.336-2.839-2.5
 c0-4.943,0.041-9.886-0.029-14.828c-0.016-1.155,0.298-1.383,1.401-1.282c8.412,0.757,16.832,1.41,25.239,2.208
 c1.379,0.13,1.429-0.262,1.233-1.367c-0.832-4.679-1.576-9.372-2.427-14.047c-0.162-0.88,0.13-0.94,0.839-0.938
 c6.545,0.019,13.09,0.033,19.632-0.013c1.04-0.007,1.031,0.36,0.878,1.176c-0.875,4.67-1.694,9.352-2.548,14.027
 c-0.163,0.896-0.154,1.285,1.056,1.172c8.542-0.797,17.093-1.475,25.642-2.228c0.901-0.077,1.212,0.075,1.203,1.076
 c-0.052,5.522-0.05,11.042,0,16.564c0.007,0.967-0.257,1.177-1.185,1.095c-6.906-0.616-13.815-1.187-20.724-1.769
 C198.486,204.31,196.497,204.155,194.289,203.975"></path> <path d="M175.52,165.328c0.875-5.092,1.706-10.039,2.591-14.976c0.198-1.101,0.12-1.495-1.231-1.374
 c-8.503,0.748-17.018,1.359-25.524,2.084c-0.98,0.084-1.105-0.2-1.101-1.038c0.025-5.52,0.037-11.044-0.011-16.564
 c-0.009-0.958,0.335-1.083,1.151-1.011c5.624,0.498,11.249,0.965,16.877,1.441c2.923,0.245,5.851,0.438,8.765,0.764
 c1.053,0.118,1.306-0.094,1.117-1.14c-0.785-4.325-1.506-8.663-2.25-12.997c-0.118-0.698-0.227-1.401-0.359-2.217h4.162
 c5.479,0,10.956,0.023,16.432-0.021c0.944-0.009,1.078,0.244,0.912,1.122c-0.887,4.711-1.706,9.439-2.573,14.156
 c-0.161,0.878-0.032,1.197,1.006,1.101c8.235-0.748,16.474-1.431,24.711-2.134c0.089-0.007,0.178-0.01,0.266-0.02
 c1.9-0.161,1.9-0.161,1.9,1.783c0,5.212-0.025,10.424,0.02,15.633c0.01,1.019-0.225,1.218-1.271,1.129
 c-8.549-0.733-17.107-1.359-25.656-2.084c-1.119-0.096-1.117,0.337-0.971,1.137c0.753,4.15,1.469,8.305,2.243,12.453
 c0.516,2.777,0.548,2.773-2.216,2.773H175.52z"></path> <path d="M195.174,313.77c-2.871,5.528-5.619,10.821-8.483,16.338c-3.253-5.524-6.403-10.871-9.627-16.338H195.174z"></path> <path d="M527.668,126.394v-10.132c0.039-4.853-0.817-8.91-2.505-12.173c-1.708-3.28-4.465-5.726-8.269-7.375
 c-3.785-1.65-8.815-2.466-15.082-2.466h-31.681v77.569h17.47v-23.526h13.279c6.269,0,11.374-0.813,15.334-2.445
 c3.94-1.631,6.852-4.056,8.697-7.3C526.774,135.305,527.686,131.246,527.668,126.394 M510.198,124.646
 c0.038,1.864-0.214,3.438-0.701,4.699c-0.503,1.261-1.436,2.192-2.775,2.834c-1.358,0.641-3.299,0.971-5.842,0.971h-13.279v-23.41
 h13.279c2.425,0,4.329,0.291,5.687,0.871c1.358,0.584,2.311,1.477,2.855,2.68c0.541,1.203,0.794,2.736,0.776,4.602V124.646z
 M597.005,116.844c0.021-2.971-0.523-5.863-1.611-8.676c-1.085-2.816-2.832-5.357-5.202-7.611c-2.368-2.271-5.473-4.078-9.297-5.414
 c-3.824-1.34-8.483-2.021-13.938-2.06c-5.455,0.039-10.094,0.72-13.938,2.06c-3.824,1.339-6.929,3.143-9.297,5.414
 c-2.369,2.254-4.097,4.795-5.203,7.611c-1.088,2.813-1.631,5.705-1.61,8.676v32.38c-0.021,2.968,0.522,5.86,1.61,8.676
 c1.106,2.815,2.834,5.337,5.203,7.61c2.368,2.27,5.473,4.076,9.297,5.414c3.844,1.34,8.483,2.019,13.938,2.058
 c5.455-0.039,10.114-0.718,13.938-2.058c3.822-1.338,6.929-3.144,9.297-5.414c2.37-2.273,4.117-4.795,5.202-7.61
 c1.088-2.814,1.632-5.708,1.611-8.676V116.844z M579.535,147.709c0.02,3.066-0.97,5.455-3.008,7.163
 c-2.038,1.728-5.223,2.601-9.57,2.619c-4.347-0.018-7.532-0.891-9.57-2.619c-2.02-1.708-3.028-4.097-3.01-7.163v-29.353
 c-0.018-3.066,0.99-5.455,3.01-7.161c2.038-1.728,5.223-2.601,9.57-2.622c4.347,0.021,7.532,0.894,9.57,2.622
 c2.038,1.706,3.028,4.095,3.008,7.161V147.709z M658.449,171.817h20.732l-18.751-26.553c3.881-1.631,6.733-4.079,8.578-7.321
 c1.825-3.259,2.737-7.297,2.719-12.131v-9.55c0.038-4.853-0.817-8.91-2.505-12.173c-1.708-3.28-4.465-5.726-8.269-7.375
 c-3.785-1.65-8.815-2.466-15.082-2.466h-32.262v77.569h17.468v-24.108h10.251L658.449,171.817z M654.256,124.064
 c0.018,1.943-0.232,3.534-0.758,4.795c-0.523,1.263-1.474,2.194-2.834,2.794c-1.358,0.623-3.262,0.914-5.728,0.914h-13.859V109.74
 h13.859c2.35-0.02,4.215,0.271,5.573,0.814c1.359,0.564,2.33,1.438,2.912,2.639c0.582,1.203,0.853,2.759,0.835,4.7V124.064z
 M739.084,109.74V94.248h-59.168v15.492h20.849v62.077h17.473V109.74H739.084z M523.592,271.646V235.19h-16.425v23.761
 c-1.492,0.194-2.796,0.329-3.919,0.445c-1.126,0.098-2.193,0.158-3.203,0.197c-1.029,0.038-2.097,0.058-3.242,0.058
 c-2.893-0.02-5.125-0.525-6.717-1.514c-1.591-0.992-2.717-2.33-3.34-3.999c-0.621-1.65-0.91-3.515-0.892-5.554v-26.67
 c-0.018-2.038,0.271-3.845,0.892-5.436c0.623-1.59,1.749-2.853,3.34-3.765c1.592-0.912,3.824-1.379,6.717-1.4
 c1.418,0,3.066,0.041,4.95,0.137c1.902,0.098,3.884,0.235,5.981,0.407c2.074,0.158,4.131,0.35,6.169,0.584
 c2.038,0.233,3.904,0.465,5.61,0.738l2.097-15.257c-2.231-0.428-4.697-0.835-7.395-1.204c-2.68-0.37-5.512-0.661-8.465-0.894
 c-2.948-0.234-5.937-0.35-8.947-0.35c-6.29,0.018-11.549,1.009-15.762,2.97c-4.193,1.961-7.357,4.719-9.473,8.27
 c-2.117,3.533-3.184,7.705-3.184,12.52v32.378c0,4.737,1.067,8.872,3.184,12.425c2.116,3.552,5.28,6.329,9.473,8.308
 c4.213,1.981,9.472,2.989,15.762,3.028c4.502,0,9.027-0.311,13.567-0.951C514.915,273.801,519.32,272.87,523.592,271.646
 M594.405,254.06v-37.271c0.018-2.642-0.446-5.164-1.417-7.57c-0.951-2.407-2.446-4.543-4.523-6.446
 c-2.076-1.88-4.774-3.378-8.114-4.464c-3.339-1.088-7.398-1.65-12.152-1.67h-30.048v77.569h30.048
 c4.754-0.018,8.813-0.582,12.152-1.687c3.34-1.109,6.038-2.603,8.114-4.505c2.077-1.883,3.572-4.037,4.523-6.445
 C593.959,259.186,594.423,256.679,594.405,254.06 M576.934,249.283c0.039,2.02-0.252,3.728-0.873,5.146
 c-0.601,1.396-1.691,2.463-3.26,3.184c-1.574,0.735-3.806,1.104-6.7,1.104h-10.48v-46.589h10.48c2.894,0,5.126,0.371,6.7,1.107
 c1.569,0.72,2.659,1.786,3.26,3.186c0.621,1.396,0.912,3.125,0.873,5.142V249.283z M647.165,196.639h-23.294l-23.642,77.569h18.169
 l4.192-15.142h25.972l4.195,15.142h18.167L647.165,196.639z M635.518,212.015l8.851,32.493h-17.821L635.518,212.015z
 M721.707,274.208h21.545v-77.569h-16.654V250.1l-25.505-53.461h-21.432v77.569h16.654v-51.013L721.707,274.208z M809.525,252.429
 c0.018-3.031-0.057-5.666-0.273-7.901c-0.212-2.252-0.699-4.194-1.436-5.823c-0.757-1.631-1.922-3.069-3.494-4.291
 c-1.592-1.221-3.746-2.329-6.463-3.339c-2.736-1.008-6.174-2-10.348-2.989c-3.028-0.698-5.395-1.302-7.124-1.824
 c-1.727-0.505-2.969-1.088-3.747-1.709c-0.773-0.642-1.26-1.494-1.454-2.582c-0.195-1.067-0.291-2.523-0.253-4.367
 c-0.02-1.882,0.212-3.34,0.738-4.386c0.525-1.031,1.476-1.747,2.873-2.155c1.379-0.389,3.358-0.583,5.939-0.564
 c2.312,0,4.543,0.077,6.736,0.234c2.175,0.155,4.466,0.408,6.852,0.738c2.389,0.311,5.027,0.736,7.96,1.242l1.747-14.676
 c-4.329-0.933-8.483-1.592-12.462-1.98c-3.981-0.408-7.668-0.601-11.065-0.583c-5.3,0-9.688,0.389-13.18,1.203
 c-3.476,0.817-6.213,2.08-8.212,3.827c-1.979,1.726-3.396,3.958-4.213,6.715c-0.815,2.736-1.201,6.055-1.183,9.921
 c-0.018,3.337,0.134,6.21,0.446,8.598c0.312,2.407,0.894,4.443,1.747,6.116c0.835,1.687,2.077,3.104,3.669,4.269
 c1.593,1.183,3.69,2.192,6.251,3.087c2.562,0.873,5.706,1.708,9.434,2.502c3.144,0.681,5.61,1.302,7.396,1.845
 c1.785,0.564,3.085,1.185,3.883,1.883c0.814,0.699,1.319,1.573,1.513,2.66c0.193,1.087,0.291,2.484,0.252,4.212
 c0.021,1.632-0.116,2.969-0.407,4.037c-0.291,1.087-0.815,1.923-1.592,2.545c-0.758,0.621-1.843,1.046-3.26,1.319
 c-1.4,0.253-3.224,0.369-5.455,0.369c-3.999-0.02-7.842-0.369-11.532-1.028c-3.687-0.681-7.297-1.575-10.832-2.7l-2.91,13.512
 c2.232,1.008,4.716,1.902,7.452,2.639c2.74,0.758,5.59,1.34,8.581,1.747c2.989,0.407,5.999,0.621,9.006,0.621
 c4.659,0,8.638-0.311,11.939-0.912c3.301-0.604,6.037-1.516,8.173-2.737c2.154-1.222,3.842-2.737,5.046-4.581
 c1.205-1.825,2.059-3.979,2.563-6.424C809.311,258.272,809.543,255.495,809.525,252.429 M821.754,274.208h17.471v-77.569h-17.471
 V274.208z M864.032,274.208h19.684l-23.41-39.601l21.779-37.968h-19.684l-20.965,37.968L864.032,274.208z"></path> <path d="M708.534,198.716c2.261-1.004,4.306-1.945,6.131-2.844c1.827-0.876,3.594-1.774,5.307-2.718
 c1.713-0.942,3.53-1.996,5.45-3.176l-5.659-10.161c-2.398,1.601-4.989,3.207-7.794,4.837c-2.807,1.614-5.71,3.24-8.692,4.862
 L708.534,198.716z"></path> </svg>