<svg width="266" height="40" viewBox="0 0 266 40" fill="none" xmlns="http://www.w3.org/2000/svg">
  <g clip-path="url(#clip0_5046_14455)">
    <path d="M53.0754 2.01216V31.0642H46.7831V2.01216L40.4908 4.82016V31.0462H34.1985V7.62816L27.9062 10.4362V37.2202H59.3676V4.82016L53.0754 2.01216Z" fill="#A31B33"/>
    <path d="M65.6562 7.62816V37.2202H71.9577V10.4362L65.6562 7.62816Z" fill="#A31B33"/>
    <path d="M4.75811 28.3643C6.28073 30.6233 8.92239 31.9373 11.4448 31.9373C13.9672 31.9373 15.5724 30.7403 15.5724 28.9943C15.5724 27.2483 14.3158 26.0963 11.2797 25.0793L8.67473 24.1883C3.7308 22.4873 1.07997 19.6703 1.07997 15.5393C1.07997 9.83333 5.51025 6.46733 11.4998 6.46733C15.2789 6.46733 18.5718 7.74533 21.2226 10.6433L17.0583 14.8553C15.5816 13.1093 13.6737 12.2543 11.5457 12.2543C9.4177 12.2543 7.42728 13.1453 7.42728 14.9363C7.42728 16.7273 8.9499 17.5733 12.1969 18.7253L14.6735 19.6163C19.1863 21.2363 22.0114 24.0443 22.0114 28.5983C21.9656 34.0073 17.5811 37.7153 11.2063 37.7153C6.29908 37.7153 2.18066 35.6273 -0.0390625 32.3063L4.77645 28.3463L4.75811 28.3643Z" fill="#A31B33"/>
    <path d="M82.2503 28.3643C83.7729 30.6233 86.4146 31.9373 88.937 31.9373C91.4594 31.9373 93.0646 30.7403 93.0646 28.9943C93.0646 27.2483 91.808 26.0963 88.7719 25.0793L86.1669 24.1883C81.223 22.4873 78.5722 19.6703 78.5722 15.5393C78.5722 9.83333 83.0024 6.46733 88.992 6.46733C92.7711 6.46733 96.064 7.74533 98.7148 10.6433L94.5505 14.8553C93.0737 13.1093 91.1659 12.2543 89.0379 12.2543C86.9099 12.2543 84.9195 13.1453 84.9195 14.9363C84.9195 16.7273 86.4421 17.5733 89.6891 18.7253L92.1657 19.6163C96.6785 21.2363 99.5036 24.0443 99.5036 28.5983C99.4577 34.0073 95.0733 37.7153 88.6985 37.7153C83.7913 37.7153 79.6728 35.6273 77.4531 32.3063L82.2686 28.3463L82.2503 28.3643Z" fill="#A31B33"/>
    <path d="M108.071 28.3643C109.593 30.6233 112.235 31.9373 114.757 31.9373C117.28 31.9373 118.885 30.7403 118.885 28.9943C118.885 27.2483 117.628 26.0963 114.592 25.0793L111.987 24.1883C107.043 22.4873 104.392 19.6703 104.392 15.5393C104.392 9.83333 108.823 6.46733 114.812 6.46733C118.591 6.46733 121.884 7.74533 124.535 10.6433L120.371 14.8553C118.894 13.1093 116.986 12.2543 114.858 12.2543C112.73 12.2543 110.74 13.1453 110.74 14.9363C110.74 16.7273 112.262 17.5733 115.509 18.7253L117.986 19.6163C122.499 21.2363 125.324 24.0443 125.324 28.5983C125.278 34.0073 120.894 37.7153 114.519 37.7153C109.612 37.7153 105.493 35.6273 103.273 32.3063L108.089 28.3463L108.071 28.3643Z" fill="#A31B33"/>
    <path d="M152.754 17.1594C152.754 22.9104 148.195 27.3384 141.949 27.3384H137.995V37.2204H131.703V6.9894H141.949C148.195 6.9894 152.754 11.4174 152.754 17.1684V17.1594ZM146.636 17.1594C146.636 14.6934 144.728 12.7764 141.857 12.7764H137.995V21.5514H141.857C144.719 21.5514 146.636 19.6344 146.636 17.1684V17.1594Z" fill="#A31B33"/>
    <path d="M157.859 6.9894H177.039V12.8664H164.152V19.0854H174.434V24.9624H164.152V31.3524H177.039V37.2294H157.859V6.9894Z" fill="#A31B33"/>
    <path d="M193.468 6.9894H199.063L212.39 37.2294H205.796L202.805 30.3264H189.698L186.708 37.2294H180.195L193.477 6.9894H193.468ZM200.503 24.9174L196.247 15.0804L191.991 24.9174H200.494H200.503Z" fill="#A31B33"/>
    <path d="M215.773 6.98926H227.578C233.348 6.98926 237.044 10.9043 237.044 15.9353C237.044 19.9853 234.788 22.5323 230.706 23.8103L241.777 37.2293H234.182L223.634 24.4943H222.075V37.2293H215.783V6.98926H215.773ZM226.845 19.2113C229.193 19.2113 230.798 17.9783 230.798 15.9353C230.798 13.8923 229.193 12.6593 226.845 12.6593H222.066V19.2203H226.845V19.2113Z" fill="#A31B33"/>
    <path d="M245.658 6.9894H251.95V31.3524H265.14V37.2294H245.648V6.9894H245.658Z" fill="#A31B33"/>
  </g>
  <defs>
    <clipPath id="clip0_5046_14455">
      <rect width="266" height="39" fill="white" transform="translate(0 0.5)"/>
    </clipPath>
  </defs>
</svg>
