<svg xmlns="http://www.w3.org/2000/svg" viewBox="0 0 603 603" width="60" height="60">
	<defs>
		<clipPath clipPathUnits="userSpaceOnUse" id="cp1">
			<path d="M0 0L603 0L603 603L0 603Z" />
		</clipPath>
	</defs>
	<style>
		tspan { white-space:pre }
		.shp0 { fill: #2c2e35 } 
		.shp1 { fill: #ffffff } 
		.shp2 { fill: #d22f13 } 
	</style>
	<g id="Page 1" clip-path="url(#cp1)">
		<path id="Path 1" class="shp0" d="M83.02 546.32L523.91 546.32L523.91 52.75L83.02 52.75L83.02 546.32Z" />
		<path id="Path 2" class="shp1" d="M88.67 540.05L518.26 540.05L518.26 58.4L88.67 58.4L88.67 540.05Z" />
		<path id="Path 3" class="shp0" d="M441.12 340.61L473.74 340.61L473.74 191.98L441.12 191.98L441.12 340.61ZM182.11 191.98L182.11 223.96L216.61 223.96L216.61 340.61L249.84 340.61L249.84 223.96L283.08 223.96L283.08 191.98L182.11 191.98ZM307.54 265.98C307.54 240.27 328.24 218.94 353.95 218.94L353.95 185.71C310.05 185.71 273.67 221.46 273.67 265.98C273.67 310.51 310.05 346.26 353.95 346.26L353.95 313.02C328.24 313.02 307.54 291.69 307.54 265.98ZM353.95 218.94C380.29 218.94 400.99 240.27 400.99 265.98C400.99 291.69 380.29 313.02 353.95 313.02L353.95 346.26C398.48 346.26 434.22 310.51 434.22 265.98C434.22 221.46 398.48 185.71 353.95 185.71L353.95 218.94Z" />
		<path id="Path 4" class="shp2" d="M456.8 183.2C446.14 174.42 433.59 162.51 430.46 158.74C423.56 151.22 419.17 139.93 426.07 129.27C432.97 119.86 448.65 118.6 457.43 129.27C465.58 118.6 481.89 119.86 488.16 129.27C495.06 139.93 490.67 151.22 483.77 158.74C481.26 162.51 468.09 174.42 456.8 183.2Z" />
		<path id="Path 5" fill-rule="evenodd" class="shp0" d="M157.65 493.64C157.65 499.28 162.04 503.67 167.06 503.67C172.08 503.67 176.47 499.28 176.47 493.64C176.47 488.62 172.08 484.23 167.06 484.23C162.04 484.23 157.65 488.62 157.65 493.64ZM155.77 493.64C155.77 487.37 160.79 482.35 167.06 482.35C173.33 482.35 178.35 487.37 178.35 493.64C178.35 500.54 173.33 505.55 167.06 505.55C160.79 505.55 155.77 500.54 155.77 493.64ZM164.55 489.25L164.55 492.38L167.06 492.38C168.94 492.38 170.82 492.38 170.82 491.13C170.82 489.25 169.57 489.25 167.69 489.25L164.55 489.25ZM164.55 494.27L164.55 500.54L162.67 500.54L162.67 487.37L168.31 487.37C170.19 487.37 172.7 487.99 172.7 491.13C172.7 493.64 170.82 494.27 168.94 494.27L172.08 500.54L170.19 500.54L167.06 494.89L167.06 494.27L164.55 494.27ZM283.08 356.29L283.08 388.28L249.84 388.28L249.84 504.93L216.61 504.93L216.61 388.28L182.11 388.28L182.11 356.29L283.08 356.29ZM441.12 356.29L473.74 356.29L473.74 504.93L441.12 504.93L441.12 356.29ZM273.67 430.3C273.67 385.77 310.05 350.02 353.95 350.02C398.48 350.02 434.22 385.77 434.22 430.3C434.22 474.82 398.48 510.57 353.95 510.57C310.05 510.57 273.67 474.82 273.67 430.3ZM307.54 430.3C307.54 456 328.24 477.33 353.95 477.33C380.29 477.33 400.99 456 400.99 430.3C400.99 404.58 380.29 383.26 353.95 383.26C328.24 383.26 307.54 404.58 307.54 430.3Z" />
	</g>
</svg>