<svg xmlns="http://www.w3.org/2000/svg" version="1.1" xmlns:xlink="http://www.w3.org/1999/xlink" xmlns:svgjs="http://svgjs.dev/svgjs" width="512" height="512"><svg xmlns="http://www.w3.org/2000/svg" width="512" height="512" version="1.1" viewBox="0 0 135 135">
  <g transform="matrix(5.9 0 0 5.9 8.92 .307)" stroke-width=".0188">
    <path d="m9.96 19.3 2.68-0.339 0.0496-0.197-0.0056-0.383-0.105-0.369-0.197-0.329-0.275-0.267-0.335-0.187-0.372-0.0938-0.383 0.0056-0.369 0.105-0.329 0.197-0.267 0.275-0.187 0.335-0.0939 0.372 0.00559 0.383 0.105 0.369z" fill="#93b0ca"></path>
    <path d="m0.195 14.6 4.35 0.958-1.32-10.5 14.8-1.88-14.6-3.23z" fill="#02213f"></path>
    <path d="m14.6 22.9 3.22-14.6-14.6-3.22-3.22 14.6zm-1.91-4.14-0.0938 0.372-0.187 0.335-0.267 0.275-0.329 0.197-0.369 0.105-0.383 0.0056-0.372-0.0938-0.335-0.187-0.275-0.267-0.197-0.329-0.105-0.369-0.00559-0.383 0.0939-0.372 0.187-0.335 0.267-0.275 0.329-0.197 0.369-0.105 0.383-0.0056 0.372 0.0938 0.335 0.187 0.275 0.267 0.197 0.329 0.105 0.369z" fill="#4e91bb"></path>
    <path d="m3.22 5.1 14.6 3.22-2.27 10.3 4.38-0.554-1.88-14.8z" fill="#93b0ca"></path>
  </g>
</svg><style>@media (prefers-color-scheme: light) { :root { filter: none; } }
@media (prefers-color-scheme: dark) { :root { filter: none; } }
</style></svg>